<?xml version="1.0" encoding="utf-8"?>
<!-- Generator: Adobe Illustrator 24.0.2, SVG Export Plug-In . SVG Version: 6.00 Build 0)  -->
<svg version="1.1" id="Livello_1" xmlns="http://www.w3.org/2000/svg" xmlns:xlink="http://www.w3.org/1999/xlink" x="0px" y="0px"
	 viewBox="0 0 600 600" style="enable-background:new 0 0 600 600;" xml:space="preserve">
<style type="text/css">
	.st0{fill:#2B2D42;}
	.st1{opacity:0.6;fill:#E2E2E4;}
	.st2{opacity:0.6;}
	.st3{fill:#E2E2E4;}
</style>
<circle class="st0" cx="300" cy="300" r="300"/>
<g>
	<path class="st1" d="M300,162.41c47.36,0,85.88,38.53,85.88,85.88s-38.53,85.88-85.88,85.88c-47.36,0-85.88-38.53-85.88-85.88
		S252.64,162.41,300,162.41 M300,109.06c-76.9,0-139.23,62.34-139.23,139.23c0,76.9,62.34,139.23,139.23,139.23
		s139.23-62.34,139.23-139.23C439.23,171.39,376.9,109.06,300,109.06L300,109.06z"/>
	<g class="st2">
		<path class="st3" d="M412.71,162.1H299.73c-14.65,0-26.52-11.87-26.52-26.52v0c0-14.65,11.87-26.52,26.52-26.52h112.98
			c14.65,0,26.52,11.87,26.52,26.52v0C439.23,150.22,427.36,162.1,412.71,162.1z"/>
	</g>
	<g class="st2">
		<path class="st3" d="M358.45,490.04H206.81c-14.73,0-26.68-11.95-26.68-26.68s11.95-26.68,26.68-26.68h151.64
			c13.64,0,24.74-11.09,24.74-24.74c0-13.65-11.09-24.74-24.74-24.74H300c-14.73,0-26.68-11.95-26.68-26.68s11.95-26.68,26.68-26.68
			h58.45c43.06,0,78.09,35.04,78.09,78.09S401.51,490.04,358.45,490.04z"/>
	</g>
</g>
</svg>
