<?xml version="1.0" encoding="utf-8"?>
<!-- Generator: Adobe Illustrator 24.0.2, SVG Export Plug-In . SVG Version: 6.00 Build 0)  -->
<svg version="1.1" id="Livello_1" xmlns="http://www.w3.org/2000/svg" xmlns:xlink="http://www.w3.org/1999/xlink" x="0px" y="0px"
	 viewBox="0 0 600 600" style="enable-background:new 0 0 600 600;" xml:space="preserve">
<style type="text/css">
	.st0{fill:#E2E2E4;}
	.st1{opacity:0.6;fill:#E2E2E4;}
	.st2{opacity:0.6;}
</style>
<g>
	<g>
		<path class="st0" d="M544.64,599.26c-16.22,0-29.09-12.61-29.09-28.17c0-8.07,3.45-15.64,9.16-20.77l2.78,3.36
			c-4.88,4.46-7.65,10.76-7.65,17.4c0,13.2,10.76,23.54,24.8,23.54c13.71,0,24.47-9.84,24.47-23.71c0-7.06-2.77-13.2-7.49-17.74
			h-14.71v18.5h-4.03v-22.87h19.84c6.81,5.47,10.68,13.54,10.68,22.28C573.4,586.99,560.62,599.26,544.64,599.26z"/>
		<path class="st0" d="M516.31,529.08v-4.37h56.33v4.37H516.31z"/>
		<path class="st0" d="M514.63,486.21v-1.51l58.01-21.27v4.79l-16.14,5.8v22.87l16.14,5.8v4.79L514.63,486.21z M552.46,475.45
			l-27.91,10l27.91,10.09V475.45z"/>
		<path class="st0" d="M516.31,446.2v-17.57c0-17.57,11.94-30.52,28.08-30.52c16.31,0,28.25,12.95,28.25,30.52v17.57H516.31z
			 M568.61,428.63c0-14.97-10.26-25.9-24.22-25.9c-13.95,0-24.04,10.85-24.04,25.9v13.2h48.26V428.63z"/>
		<path class="st0" d="M514.63,365.51v-1.51l58.01-21.27v4.79l-16.14,5.8v22.87l16.14,5.8v4.79L514.63,365.51z M552.46,354.75
			l-27.91,10l27.91,10.09V354.75z"/>
		<path class="st0" d="M516.31,301.13v-17.57c0-17.57,11.94-30.52,28.08-30.52c16.31,0,28.25,12.95,28.25,30.52v17.57H516.31z
			 M568.61,283.56c0-14.97-10.26-25.9-24.22-25.9c-13.95,0-24.04,10.85-24.04,25.9v13.2h48.26V283.56z"/>
		<path class="st0" d="M516.31,234.56v-28.25h4.04v23.88h21.1v-18.41h4.03v18.41h23.12v-24.3h4.03v28.67H516.31z"/>
		<path class="st0" d="M563.05,192.03l-2.61-3.36c5.8-3.62,8.91-8.57,8.91-14.46c0-7.06-4.54-12.02-11.01-12.02
			c-5.63,0-9.5,3.7-12.61,12.02c-3.7,9.92-8.91,14.38-16.06,14.38c-8.41,0-14.13-6.05-14.13-14.8c0-6.05,2.78-11.18,8.33-15.05
			l2.52,3.36c-4.54,3.2-6.81,7.06-6.81,11.69c0,6.39,4.12,10.42,9.84,10.42c5.38,0,9.16-3.62,12.27-11.69
			c3.87-10.09,9.08-14.71,16.39-14.71c8.91,0,15.3,6.89,15.3,16.48C573.4,181.6,569.61,188.16,563.05,192.03z"/>
		<path class="st0" d="M516.31,139.75v-4.37h56.33v4.37H516.31z"/>
		<path class="st0" d="M544.64,116.88c-16.22,0-29.09-12.61-29.09-28.17c0-8.07,3.45-15.64,9.16-20.77l2.78,3.36
			c-4.88,4.46-7.65,10.76-7.65,17.4c0,13.2,10.76,23.54,24.8,23.54c13.71,0,24.47-9.84,24.47-23.71c0-7.06-2.77-13.2-7.49-17.74
			h-14.71v18.5h-4.03V66.44h19.84c6.81,5.47,10.68,13.54,10.68,22.28C573.4,104.61,560.62,116.88,544.64,116.88z"/>
		<path class="st0" d="M525.39,42.33h47.25v4.37h-58.01v-1.6l48.93-38.76h-47.25V1.97h58.01v1.6L525.39,42.33z"/>
	</g>
	<path class="st1" d="M246.04,83.24c74.69,0,135.46,60.77,135.46,135.46s-60.77,135.46-135.46,135.46
		c-74.69,0-135.46-60.77-135.46-135.46S171.35,83.24,246.04,83.24 M246.04-0.9c-121.28,0-219.6,98.32-219.6,219.6
		c0,121.28,98.32,219.6,219.6,219.6s219.6-98.32,219.6-219.6C465.64,97.42,367.32-0.9,246.04-0.9L246.04-0.9z"/>
	<g class="st2">
		<path class="st0" d="M423.81,82.76h-178.2c-23.1,0-41.83-18.73-41.83-41.83v0c0-23.1,18.73-41.83,41.83-41.83h178.2
			c23.1,0,41.83,18.73,41.83,41.83v0C465.64,64.03,446.91,82.76,423.81,82.76z"/>
	</g>
	<g class="st2">
		<path class="st0" d="M338.23,600H99.06c-23.24,0-42.08-18.84-42.08-42.08c0-23.24,18.84-42.08,42.08-42.08h239.17
			c21.51,0,39.01-17.5,39.01-39.01c0-21.52-17.5-39.02-39.01-39.02h-92.19c-23.24,0-42.08-18.84-42.08-42.08
			c0-23.24,18.84-42.08,42.08-42.08h92.19c67.91,0,123.16,55.26,123.16,123.17S406.15,600,338.23,600z"/>
	</g>
</g>
</svg>
