<?xml version="1.0" encoding="utf-8"?>
<!-- Generator: Adobe Illustrator 24.0.2, SVG Export Plug-In . SVG Version: 6.00 Build 0)  -->
<svg version="1.1" id="Livello_1" xmlns="http://www.w3.org/2000/svg" xmlns:xlink="http://www.w3.org/1999/xlink" x="0px" y="0px"
	 viewBox="0 0 1080 1080" style="enable-background:new 0 0 1080 1080;" xml:space="preserve">
<style type="text/css">
	.st0{fill:#1D1D1B;}
	.st1{opacity:0.6;fill:#1D1D1B;}
	.st2{opacity:0.6;}
</style>
<g>
	<path class="st0" d="M932.86,1044.76c-27.31,0-48.97-21.23-48.97-47.41c0-13.59,5.8-26.32,15.43-34.95l4.68,5.66
		c-8.21,7.5-12.88,18.11-12.88,29.29c0,22.22,18.11,39.63,41.74,39.63c23.07,0,41.18-16.56,41.18-39.91
		c0-11.88-4.67-22.21-12.6-29.86h-24.76v31.13h-6.79v-38.49h33.39c11.46,9.2,17.97,22.79,17.97,37.5
		C981.26,1024.1,959.75,1044.76,932.86,1044.76z"/>
	<path class="st0" d="M885.17,926.62v-7.36h94.82v7.36H885.17z"/>
	<path class="st0" d="M882.34,854.47v-2.55l97.64-35.8v8.07l-27.17,9.76v38.49l27.17,9.77v8.06L882.34,854.47z M946.03,836.35
		l-46.98,16.84l46.98,16.98V836.35z"/>
	<path class="st0" d="M885.17,787.13v-29.57c0-29.57,20.09-51.37,47.26-51.37c27.46,0,47.55,21.8,47.55,51.37v29.57H885.17z
		 M973.2,757.55c0-25.19-17.27-43.59-40.76-43.59c-23.49,0-40.47,18.26-40.47,43.59v22.22h81.23V757.55z"/>
	<path class="st0" d="M882.34,651.3v-2.55l97.64-35.8v8.07l-27.17,9.76v38.49l27.17,9.77v8.06L882.34,651.3z M946.03,633.19
		l-46.98,16.84l46.98,16.98V633.19z"/>
	<path class="st0" d="M885.17,542.94v-29.57c0-29.57,20.09-51.37,47.26-51.37c27.46,0,47.55,21.8,47.55,51.37v29.57H885.17z
		 M973.2,513.36c0-25.19-17.27-43.59-40.76-43.59c-23.49,0-40.47,18.26-40.47,43.59v22.22h81.23V513.36z"/>
	<path class="st0" d="M885.17,430.89v-47.55h6.8v40.19h35.52v-30.99h6.79v30.99h38.92v-40.9h6.79v48.25H885.17z"/>
	<path class="st0" d="M963.85,359.31l-4.39-5.66c9.76-6.09,15-14.43,15-24.34c0-11.89-7.63-20.24-18.53-20.24
		c-9.48,0-15.99,6.23-21.23,20.24c-6.23,16.7-15,24.2-27.03,24.2c-14.15,0-23.78-10.19-23.78-24.91c0-10.19,4.68-18.82,14.01-25.33
		l4.25,5.66c-7.64,5.38-11.46,11.89-11.46,19.67c0,10.75,6.94,17.55,16.56,17.55c9.06,0,15.42-6.09,20.66-19.67
		c6.51-16.98,15.28-24.76,27.59-24.76c15,0,25.76,11.6,25.76,27.73C981.26,341.76,974.89,352.8,963.85,359.31z"/>
	<path class="st0" d="M885.17,271.3v-7.36h94.82v7.36H885.17z"/>
	<path class="st0" d="M932.86,232.82c-27.31,0-48.97-21.23-48.97-47.41c0-13.59,5.8-26.32,15.43-34.95l4.68,5.66
		c-8.21,7.5-12.88,18.11-12.88,29.29c0,22.22,18.11,39.63,41.74,39.63c23.07,0,41.18-16.56,41.18-39.91
		c0-11.88-4.67-22.21-12.6-29.86h-24.76v31.13h-6.79v-38.49h33.39c11.46,9.2,17.97,22.79,17.97,37.5
		C981.26,212.16,959.75,232.82,932.86,232.82z"/>
	<path class="st0" d="M900.45,107.32h79.53v7.36h-97.64v-2.69l82.36-65.24h-79.53V39.4h97.64v2.69L900.45,107.32z"/>
</g>
<path class="st1" d="M410.26,176.19c125.72,0,228,102.28,228,228s-102.28,228-228,228c-125.72,0-228-102.28-228-228
	S284.54,176.19,410.26,176.19 M410.26,34.56c-204.14,0-369.63,165.49-369.63,369.63c0,204.14,165.49,369.63,369.63,369.63
	s369.63-165.49,369.63-369.63C779.89,200.05,614.4,34.56,410.26,34.56L410.26,34.56z"/>
<g class="st2">
	<path class="st0" d="M709.48,175.38H409.53c-38.88,0-70.41-31.52-70.41-70.41v0c0-38.88,31.52-70.41,70.41-70.41h299.95
		c38.88,0,70.41,31.52,70.41,70.41v0C779.89,143.85,748.36,175.38,709.48,175.38z"/>
</g>
<g class="st2">
	<path class="st0" d="M565.43,1046H162.86c-39.11,0-70.82-31.71-70.82-70.82s31.71-70.82,70.82-70.82h402.57
		c36.21,0,65.67-29.45,65.67-65.67c0-36.23-29.45-65.68-65.67-65.68H410.26c-39.11,0-70.82-31.71-70.82-70.82
		s31.71-70.82,70.82-70.82h155.17c114.31,0,207.31,93.01,207.31,207.32S679.74,1046,565.43,1046z"/>
</g>
</svg>
