<?xml version="1.0" encoding="utf-8"?>
<!-- Generator: Adobe Illustrator 24.0.2, SVG Export Plug-In . SVG Version: 6.00 Build 0)  -->
<svg version="1.1" id="Livello_1" xmlns="http://www.w3.org/2000/svg" xmlns:xlink="http://www.w3.org/1999/xlink" x="0px" y="0px"
	 viewBox="0 0 1080 1080" style="enable-background:new 0 0 1080 1080;" xml:space="preserve">
<style type="text/css">
	.st0{opacity:0.6;fill:#1D1D1B;}
	.st1{opacity:0.6;}
	.st2{fill:#1D1D1B;}
</style>
<g>
	<path class="st0" d="M540,176.19c125.72,0,228,102.28,228,228s-102.28,228-228,228c-125.72,0-228-102.28-228-228
		S414.28,176.19,540,176.19 M540,34.56c-204.14,0-369.63,165.49-369.63,369.63c0,204.14,165.49,369.63,369.63,369.63
		s369.63-165.49,369.63-369.63C909.63,200.05,744.14,34.56,540,34.56L540,34.56z"/>
	<g class="st1">
		<path class="st2" d="M839.22,175.38H539.28c-38.88,0-70.41-31.52-70.41-70.41v0c0-38.88,31.52-70.41,70.41-70.41h299.95
			c38.88,0,70.41,31.52,70.41,70.41v0C909.63,143.85,878.11,175.38,839.22,175.38z"/>
	</g>
	<g class="st1">
		<path class="st2" d="M695.18,1046H292.61c-39.11,0-70.82-31.71-70.82-70.82s31.71-70.82,70.82-70.82h402.57
			c36.21,0,65.67-29.45,65.67-65.67c0-36.23-29.45-65.68-65.67-65.68H540c-39.11,0-70.82-31.71-70.82-70.82s31.71-70.82,70.82-70.82
			h155.17c114.31,0,207.31,93.01,207.31,207.32S809.49,1046,695.18,1046z"/>
	</g>
</g>
</svg>
