<?xml version="1.0" encoding="utf-8"?>
<!-- Generator: Adobe Illustrator 24.0.2, SVG Export Plug-In . SVG Version: 6.00 Build 0)  -->
<svg version="1.1" id="Livello_1" xmlns="http://www.w3.org/2000/svg" xmlns:xlink="http://www.w3.org/1999/xlink" x="0px" y="0px"
	 viewBox="0 0 1424 783" style="enable-background:new 0 0 1424 783;" xml:space="preserve">
<style type="text/css">
	.st0{fill:#FFFFFF;}
	.st1{fill:url(#SVGID_1_);}
	.st2{fill:url(#SVGID_2_);}
	.st3{fill:#1D1D1B;}
	.st4{opacity:0.6;fill:#1D1D1B;}
	.st5{opacity:0.6;}
</style>
<path class="st0" d="M1353.21,783H70.79C31.7,783,0,751.3,0,712.21V70.79C0,31.7,31.7,0,70.79,0h1282.41
	c39.1,0,70.79,31.7,70.79,70.79v641.41C1424,751.3,1392.3,783,1353.21,783z"/>
<g>
	
		<radialGradient id="SVGID_1_" cx="504.7482" cy="640.1916" r="369.9711" gradientTransform="matrix(0.179 0 0 0.0365 513.537 674.0923)" gradientUnits="userSpaceOnUse">
		<stop  offset="0" style="stop-color:#000000;stop-opacity:0.2"/>
		<stop  offset="0.1129" style="stop-color:#040404;stop-opacity:0.1774"/>
		<stop  offset="0.237" style="stop-color:#121212;stop-opacity:0.1526"/>
		<stop  offset="0.3664" style="stop-color:#282828;stop-opacity:0.1267"/>
		<stop  offset="0.4996" style="stop-color:#474747;stop-opacity:0.1001"/>
		<stop  offset="0.6358" style="stop-color:#6E6E6E;stop-opacity:0.0728"/>
		<stop  offset="0.7743" style="stop-color:#9F9F9F;stop-opacity:0.0451"/>
		<stop  offset="0.9122" style="stop-color:#D7D7D7;stop-opacity:0.0176"/>
		<stop  offset="1" style="stop-color:#FFFFFF;stop-opacity:0"/>
	</radialGradient>
	<ellipse class="st1" cx="603.89" cy="697.44" rx="67.5" ry="13.5"/>
	
		<radialGradient id="SVGID_2_" cx="313.8857" cy="697.4355" r="299.5004" gradientTransform="matrix(1 0 0 0.0851 0 638.0978)" gradientUnits="userSpaceOnUse">
		<stop  offset="0" style="stop-color:#000000;stop-opacity:0.4"/>
		<stop  offset="0.2584" style="stop-color:#3E3E3E;stop-opacity:0.2966"/>
		<stop  offset="0.8528" style="stop-color:#D8D8D8;stop-opacity:0.0589"/>
		<stop  offset="1" style="stop-color:#FFFFFF;stop-opacity:0"/>
	</radialGradient>
	<ellipse class="st2" cx="313.89" cy="697.44" rx="305.27" ry="25.5"/>
	<g>
		<g>
			<path class="st3" d="M604.2,668.23c-15.66,0-28.07-12.17-28.07-27.18c0-7.79,3.33-15.09,8.84-20.04l2.68,3.25
				c-4.71,4.3-7.38,10.38-7.38,16.79c0,12.74,10.38,22.72,23.93,22.72c13.23,0,23.61-9.49,23.61-22.88c0-6.81-2.68-12.74-7.22-17.12
				h-14.2v17.85h-3.89v-22.07h19.14c6.57,5.27,10.3,13.06,10.3,21.5C631.94,656.38,619.61,668.23,604.2,668.23z"/>
			<path class="st3" d="M576.85,600.5v-4.22h54.36v4.22H576.85z"/>
			<path class="st3" d="M575.23,559.13v-1.46l55.98-20.53v4.62l-15.58,5.6v22.07l15.58,5.6v4.62L575.23,559.13z M611.74,548.74
				l-26.94,9.65l26.94,9.73V548.74z"/>
			<path class="st3" d="M576.85,520.52v-16.96c0-16.96,11.52-29.45,27.1-29.45c15.74,0,27.26,12.5,27.26,29.45v16.96H576.85z
				 M627.32,503.56c0-14.44-9.9-24.99-23.37-24.99c-13.47,0-23.2,10.47-23.2,24.99v12.74h46.57V503.56z"/>
			<path class="st3" d="M575.23,442.65v-1.46l55.98-20.53v4.62l-15.58,5.6v22.07l15.58,5.6v4.62L575.23,442.65z M611.74,432.26
				l-26.94,9.65l26.94,9.73V432.26z"/>
			<path class="st3" d="M576.85,380.52v-16.96c0-16.96,11.52-29.45,27.1-29.45c15.74,0,27.26,12.5,27.26,29.45v16.96H576.85z
				 M627.32,363.57c0-14.44-9.9-24.99-23.37-24.99c-13.47,0-23.2,10.47-23.2,24.99v12.74h46.57V363.57z"/>
			<path class="st3" d="M576.85,316.28v-27.26h3.9v23.04h20.36V294.3h3.89v17.77h22.32v-23.45h3.89v27.66H576.85z"/>
			<path class="st3" d="M621.96,275.24l-2.52-3.25c5.6-3.49,8.6-8.27,8.6-13.95c0-6.82-4.38-11.6-10.62-11.6
				c-5.44,0-9.17,3.57-12.17,11.6c-3.57,9.57-8.6,13.87-15.5,13.87c-8.11,0-13.63-5.84-13.63-14.28c0-5.84,2.68-10.79,8.03-14.52
				l2.44,3.25c-4.38,3.08-6.57,6.82-6.57,11.28c0,6.17,3.98,10.06,9.49,10.06c5.19,0,8.84-3.49,11.85-11.28
				c3.73-9.73,8.76-14.2,15.82-14.2c8.6,0,14.77,6.65,14.77,15.9C631.94,265.18,628.29,271.51,621.96,275.24z"/>
			<path class="st3" d="M576.85,224.79v-4.22h54.36v4.22H576.85z"/>
			<path class="st3" d="M604.2,202.73c-15.66,0-28.07-12.17-28.07-27.18c0-7.79,3.33-15.09,8.84-20.04l2.68,3.25
				c-4.71,4.3-7.38,10.38-7.38,16.79c0,12.74,10.38,22.72,23.93,22.72c13.23,0,23.61-9.49,23.61-22.88c0-6.81-2.68-12.74-7.22-17.12
				h-14.2v17.85h-3.89v-22.07h19.14c6.57,5.27,10.3,13.06,10.3,21.5C631.94,190.88,619.61,202.73,604.2,202.73z"/>
			<path class="st3" d="M585.62,130.78h45.6V135h-55.98v-1.54l47.22-37.4h-45.6v-4.22h55.98v1.54L585.62,130.78z"/>
		</g>
		<path class="st4" d="M316.05,170.26c72.08,0,130.72,58.64,130.72,130.72s-58.64,130.72-130.72,130.72
			c-72.08,0-130.72-58.64-130.72-130.72S243.97,170.26,316.05,170.26 M316.05,89.06c-117.04,0-211.91,94.88-211.91,211.91
			c0,117.04,94.88,211.91,211.91,211.91s211.91-94.88,211.91-211.91C527.96,183.94,433.08,89.06,316.05,89.06L316.05,89.06z"/>
		<g class="st5">
			<path class="st3" d="M487.6,169.79H315.63c-22.29,0-40.36-18.07-40.36-40.36v0c0-22.29,18.07-40.36,40.36-40.36H487.6
				c22.29,0,40.36,18.07,40.36,40.36v0C527.96,151.72,509.89,169.79,487.6,169.79z"/>
		</g>
		<g class="st5">
			<path class="st3" d="M405.01,668.94h-230.8c-22.42,0-40.6-18.18-40.6-40.6s18.18-40.6,40.6-40.6h230.8
				c20.76,0,37.65-16.89,37.65-37.65c0-20.77-16.89-37.66-37.65-37.66h-88.96c-22.42,0-40.6-18.18-40.6-40.6s18.18-40.6,40.6-40.6
				h88.96c65.54,0,118.85,53.33,118.85,118.86S470.55,668.94,405.01,668.94z"/>
		</g>
	</g>
	<g>
		<g>
			<path d="M783.7,156.6c-4.16,0-7.72-0.88-10.68-2.64c-2.96-1.76-5.23-4.26-6.81-7.5c-1.58-3.24-2.37-7.1-2.37-11.58
				c0-3.36,0.45-6.37,1.35-9.03c0.9-2.66,2.2-4.92,3.9-6.78c1.7-1.86,3.79-3.3,6.27-4.32s5.26-1.53,8.34-1.53
				c2.48,0,4.84,0.35,7.08,1.05c2.24,0.7,4.18,1.73,5.82,3.09c0.52,0.4,0.87,0.85,1.05,1.35c0.18,0.5,0.2,0.98,0.06,1.44
				c-0.14,0.46-0.38,0.84-0.72,1.14s-0.75,0.45-1.23,0.45c-0.48,0-1.02-0.2-1.62-0.6c-1.44-1.16-3.02-2.02-4.74-2.58
				c-1.72-0.56-3.58-0.84-5.58-0.84c-3.16,0-5.84,0.67-8.04,2.01c-2.2,1.34-3.86,3.29-4.98,5.85c-1.12,2.56-1.68,5.66-1.68,9.3
				c0,3.64,0.56,6.75,1.68,9.33c1.12,2.58,2.78,4.54,4.98,5.88c2.2,1.34,4.88,2.01,8.04,2.01c1.96,0,3.82-0.29,5.58-0.87
				c1.76-0.58,3.38-1.45,4.86-2.61c0.6-0.4,1.14-0.59,1.62-0.57c0.48,0.02,0.88,0.17,1.2,0.45c0.32,0.28,0.55,0.64,0.69,1.08
				c0.14,0.44,0.14,0.9,0,1.38c-0.14,0.48-0.45,0.9-0.93,1.26c-1.68,1.44-3.65,2.53-5.91,3.27
				C788.67,156.23,786.26,156.6,783.7,156.6z"/>
			<path d="M807.52,119.88c-1,0-1.78-0.27-2.34-0.81c-0.56-0.54-0.84-1.27-0.84-2.19c0-0.96,0.28-1.69,0.84-2.19
				c0.56-0.5,1.34-0.75,2.34-0.75c1.04,0,1.83,0.25,2.37,0.75c0.54,0.5,0.81,1.23,0.81,2.19c0,0.92-0.27,1.65-0.81,2.19
				C809.35,119.61,808.56,119.88,807.52,119.88z M807.52,156.36c-0.8,0-1.4-0.23-1.8-0.69c-0.4-0.46-0.6-1.11-0.6-1.95v-24.54
				c0-0.84,0.2-1.48,0.6-1.92c0.4-0.44,1-0.66,1.8-0.66c0.76,0,1.36,0.22,1.8,0.66c0.44,0.44,0.66,1.08,0.66,1.92v24.54
				c0,0.84-0.21,1.49-0.63,1.95S808.32,156.36,807.52,156.36z"/>
			<path d="M828.22,156.6c-2,0-3.79-0.39-5.37-1.17c-1.58-0.78-2.83-1.85-3.75-3.21c-0.92-1.36-1.38-2.88-1.38-4.56
				c0-2.16,0.55-3.86,1.65-5.1c1.1-1.24,2.92-2.12,5.46-2.64c2.54-0.52,6.01-0.78,10.41-0.78h2.7v3.18h-2.64
				c-3.24,0-5.79,0.15-7.65,0.45s-3.16,0.81-3.9,1.53c-0.74,0.72-1.11,1.74-1.11,3.06c0,1.64,0.57,2.98,1.71,4.02
				c1.14,1.04,2.69,1.56,4.65,1.56c1.6,0,3.01-0.38,4.23-1.14c1.22-0.76,2.18-1.8,2.88-3.12c0.7-1.32,1.05-2.84,1.05-4.56v-6.84
				c0-2.48-0.5-4.27-1.5-5.37c-1-1.1-2.64-1.65-4.92-1.65c-1.4,0-2.8,0.18-4.2,0.54c-1.4,0.36-2.88,0.94-4.44,1.74
				c-0.56,0.28-1.04,0.37-1.44,0.27c-0.4-0.1-0.72-0.31-0.96-0.63c-0.24-0.32-0.38-0.69-0.42-1.11c-0.04-0.42,0.05-0.83,0.27-1.23
				c0.22-0.4,0.57-0.72,1.05-0.96c1.76-0.88,3.5-1.52,5.22-1.92c1.72-0.4,3.36-0.6,4.92-0.6c2.52,0,4.6,0.41,6.24,1.23
				c1.64,0.82,2.86,2.06,3.66,3.72c0.8,1.66,1.2,3.79,1.2,6.39v16.26c0,0.8-0.19,1.42-0.57,1.86c-0.38,0.44-0.93,0.66-1.65,0.66
				c-0.76,0-1.34-0.22-1.74-0.66c-0.4-0.44-0.6-1.06-0.6-1.86v-4.68h0.54c-0.32,1.52-0.93,2.82-1.83,3.9
				c-0.9,1.08-2.01,1.92-3.33,2.52C831.34,156.3,829.86,156.6,828.22,156.6z"/>
			<path d="M862.96,156.6c-2.84,0-5.3-0.62-7.38-1.86c-2.08-1.24-3.69-2.99-4.83-5.25c-1.14-2.26-1.71-4.93-1.71-8.01
				c0-2.32,0.32-4.41,0.96-6.27s1.58-3.45,2.82-4.77c1.24-1.32,2.71-2.33,4.41-3.03c1.7-0.7,3.61-1.05,5.73-1.05
				c2.84,0,5.3,0.62,7.38,1.86c2.08,1.24,3.69,2.99,4.83,5.25c1.14,2.26,1.71,4.93,1.71,8.01c0,2.32-0.32,4.4-0.96,6.24
				c-0.64,1.84-1.58,3.43-2.82,4.77c-1.24,1.34-2.71,2.36-4.41,3.06C866.99,156.25,865.08,156.6,862.96,156.6z M862.96,152.7
				c1.8,0,3.38-0.44,4.74-1.32c1.36-0.88,2.41-2.16,3.15-3.84c0.74-1.68,1.11-3.7,1.11-6.06c0-3.64-0.81-6.42-2.43-8.34
				s-3.81-2.88-6.57-2.88c-1.84,0-3.43,0.43-4.77,1.29c-1.34,0.86-2.38,2.12-3.12,3.78c-0.74,1.66-1.11,3.71-1.11,6.15
				c0,3.6,0.82,6.37,2.46,8.31C858.06,151.73,860.24,152.7,862.96,152.7z"/>
			<path d="M886.54,156.3c-1,0-1.8-0.31-2.4-0.93c-0.6-0.62-0.9-1.41-0.9-2.37s0.3-1.75,0.9-2.37c0.6-0.62,1.4-0.93,2.4-0.93
				c1,0,1.79,0.31,2.37,0.93c0.58,0.62,0.87,1.41,0.87,2.37s-0.29,1.75-0.87,2.37C888.33,155.99,887.54,156.3,886.54,156.3z
				 M886.54,145.32c-0.48,0-0.87-0.16-1.17-0.48c-0.3-0.32-0.47-0.8-0.51-1.44l-1.2-26.88c-0.04-0.96,0.19-1.73,0.69-2.31
				c0.5-0.58,1.23-0.87,2.19-0.87c0.92,0,1.62,0.29,2.1,0.87c0.48,0.58,0.7,1.35,0.66,2.31l-1.2,26.88c0,0.64-0.14,1.12-0.42,1.44
				C887.4,145.16,887.02,145.32,886.54,145.32z"/>
			<path d="M767.8,228.48c-0.72,0-1.28-0.21-1.68-0.63c-0.4-0.42-0.6-1.01-0.6-1.77v-38.34c0-0.8,0.2-1.4,0.6-1.8
				c0.4-0.4,0.96-0.6,1.68-0.6c0.64,0,1.15,0.13,1.53,0.39c0.38,0.26,0.73,0.69,1.05,1.29l16.44,30.96h-1.8l16.38-30.96
				c0.32-0.6,0.66-1.03,1.02-1.29c0.36-0.26,0.88-0.39,1.56-0.39c0.68,0,1.22,0.2,1.62,0.6c0.4,0.4,0.6,1,0.6,1.8v38.34
				c0,0.76-0.19,1.35-0.57,1.77c-0.38,0.42-0.95,0.63-1.71,0.63c-0.72,0-1.28-0.21-1.68-0.63s-0.6-1.01-0.6-1.77v-33.72h1.44
				l-15,28.14c-0.28,0.52-0.57,0.89-0.87,1.11c-0.3,0.22-0.73,0.33-1.29,0.33c-0.56,0-1-0.12-1.32-0.36
				c-0.32-0.24-0.6-0.6-0.84-1.08l-15.18-28.2h1.44v33.78c0,0.76-0.19,1.35-0.57,1.77S768.52,228.48,767.8,228.48z"/>
			<path d="M818.44,191.88c-1,0-1.78-0.27-2.34-0.81c-0.56-0.54-0.84-1.27-0.84-2.19c0-0.96,0.28-1.69,0.84-2.19
				c0.56-0.5,1.34-0.75,2.34-0.75c1.04,0,1.83,0.25,2.37,0.75c0.54,0.5,0.81,1.23,0.81,2.19c0,0.92-0.27,1.65-0.81,2.19
				C820.27,191.61,819.48,191.88,818.44,191.88z M818.44,228.36c-0.8,0-1.4-0.23-1.8-0.69c-0.4-0.46-0.6-1.11-0.6-1.95v-24.54
				c0-0.84,0.2-1.48,0.6-1.92c0.4-0.44,1-0.66,1.8-0.66c0.76,0,1.36,0.22,1.8,0.66c0.44,0.44,0.66,1.08,0.66,1.92v24.54
				c0,0.84-0.21,1.49-0.63,1.95S819.24,228.36,818.44,228.36z"/>
			<path d="M857.8,228.6c-2.92,0-5.44-0.64-7.56-1.92c-2.12-1.28-3.75-3.07-4.89-5.37c-1.14-2.3-1.71-4.97-1.71-8.01
				c0-2.32,0.32-4.4,0.96-6.24c0.64-1.84,1.58-3.41,2.82-4.71c1.24-1.3,2.73-2.29,4.47-2.97c1.74-0.68,3.71-1.02,5.91-1.02
				c1.44,0,2.94,0.22,4.5,0.66c1.56,0.44,2.98,1.2,4.26,2.28c0.4,0.28,0.66,0.62,0.78,1.02c0.12,0.4,0.12,0.79,0,1.17
				c-0.12,0.38-0.32,0.7-0.6,0.96c-0.28,0.26-0.63,0.41-1.05,0.45c-0.42,0.04-0.85-0.1-1.29-0.42c-1.04-0.8-2.1-1.36-3.18-1.68
				c-1.08-0.32-2.12-0.48-3.12-0.48c-1.56,0-2.92,0.25-4.08,0.75c-1.16,0.5-2.14,1.21-2.94,2.13c-0.8,0.92-1.41,2.06-1.83,3.42
				c-0.42,1.36-0.63,2.94-0.63,4.74c0,3.48,0.82,6.23,2.46,8.25c1.64,2.02,3.98,3.03,7.02,3.03c1,0,2.03-0.16,3.09-0.48
				c1.06-0.32,2.13-0.88,3.21-1.68c0.44-0.32,0.86-0.46,1.26-0.42c0.4,0.04,0.74,0.19,1.02,0.45c0.28,0.26,0.47,0.59,0.57,0.99
				c0.1,0.4,0.09,0.79-0.03,1.17c-0.12,0.38-0.38,0.71-0.78,0.99c-1.28,1.04-2.68,1.79-4.2,2.25
				C860.72,228.37,859.24,228.6,857.8,228.6z"/>
			<path d="M875.62,228.48c-0.8,0-1.4-0.22-1.8-0.66c-0.4-0.44-0.6-1.06-0.6-1.86V187.8c0-0.8,0.2-1.41,0.6-1.83
				c0.4-0.42,1-0.63,1.8-0.63c0.76,0,1.36,0.21,1.8,0.63c0.44,0.42,0.66,1.03,0.66,1.83v17.58h-0.78c0.84-2.32,2.21-4.07,4.11-5.25
				c1.9-1.18,4.09-1.77,6.57-1.77c2.32,0,4.25,0.42,5.79,1.26c1.54,0.84,2.69,2.11,3.45,3.81c0.76,1.7,1.14,3.85,1.14,6.45v16.08
				c0,0.8-0.21,1.42-0.63,1.86c-0.42,0.44-1.01,0.66-1.77,0.66c-0.8,0-1.41-0.22-1.83-0.66c-0.42-0.44-0.63-1.06-0.63-1.86v-15.78
				c0-2.72-0.53-4.71-1.59-5.97c-1.06-1.26-2.75-1.89-5.07-1.89c-2.68,0-4.81,0.83-6.39,2.49c-1.58,1.66-2.37,3.87-2.37,6.63v14.52
				C878.08,227.64,877.26,228.48,875.62,228.48z"/>
			<path d="M909.7,191.88c-1,0-1.78-0.27-2.34-0.81c-0.56-0.54-0.84-1.27-0.84-2.19c0-0.96,0.28-1.69,0.84-2.19
				c0.56-0.5,1.34-0.75,2.34-0.75c1.04,0,1.83,0.25,2.37,0.75c0.54,0.5,0.81,1.23,0.81,2.19c0,0.92-0.27,1.65-0.81,2.19
				C911.53,191.61,910.74,191.88,909.7,191.88z M909.7,228.36c-0.8,0-1.4-0.23-1.8-0.69c-0.4-0.46-0.6-1.11-0.6-1.95v-24.54
				c0-0.84,0.2-1.48,0.6-1.92c0.4-0.44,1-0.66,1.8-0.66c0.76,0,1.36,0.22,1.8,0.66c0.44,0.44,0.66,1.08,0.66,1.92v24.54
				c0,0.84-0.21,1.49-0.63,1.95S910.5,228.36,909.7,228.36z"/>
			<path d="M930.4,228.6c-2,0-3.79-0.39-5.37-1.17c-1.58-0.78-2.83-1.85-3.75-3.21c-0.92-1.36-1.38-2.88-1.38-4.56
				c0-2.16,0.55-3.86,1.65-5.1c1.1-1.24,2.92-2.12,5.46-2.64c2.54-0.52,6.01-0.78,10.41-0.78h2.7v3.18h-2.64
				c-3.24,0-5.79,0.15-7.65,0.45s-3.16,0.81-3.9,1.53c-0.74,0.72-1.11,1.74-1.11,3.06c0,1.64,0.57,2.98,1.71,4.02
				c1.14,1.04,2.69,1.56,4.65,1.56c1.6,0,3.01-0.38,4.23-1.14c1.22-0.76,2.18-1.8,2.88-3.12c0.7-1.32,1.05-2.84,1.05-4.56v-6.84
				c0-2.48-0.5-4.27-1.5-5.37c-1-1.1-2.64-1.65-4.92-1.65c-1.4,0-2.8,0.18-4.2,0.54c-1.4,0.36-2.88,0.94-4.44,1.74
				c-0.56,0.28-1.04,0.37-1.44,0.27c-0.4-0.1-0.72-0.31-0.96-0.63c-0.24-0.32-0.38-0.69-0.42-1.11c-0.04-0.42,0.05-0.83,0.27-1.23
				c0.22-0.4,0.57-0.72,1.05-0.96c1.76-0.88,3.5-1.52,5.22-1.92c1.72-0.4,3.36-0.6,4.92-0.6c2.52,0,4.6,0.41,6.24,1.23
				c1.64,0.82,2.86,2.06,3.66,3.72c0.8,1.66,1.2,3.79,1.2,6.39v16.26c0,0.8-0.19,1.42-0.57,1.86c-0.38,0.44-0.93,0.66-1.65,0.66
				c-0.76,0-1.34-0.22-1.74-0.66c-0.4-0.44-0.6-1.06-0.6-1.86v-4.68H940c-0.32,1.52-0.93,2.82-1.83,3.9
				c-0.9,1.08-2.01,1.92-3.33,2.52C933.52,228.3,932.04,228.6,930.4,228.6z"/>
			<path d="M955.54,228.48c-0.8,0-1.4-0.22-1.8-0.66c-0.4-0.44-0.6-1.06-0.6-1.86v-25.02c0-0.8,0.2-1.41,0.6-1.83
				c0.4-0.42,0.98-0.63,1.74-0.63s1.35,0.21,1.77,0.63c0.42,0.42,0.63,1.03,0.63,1.83v5.28l-0.66-0.84
				c0.76-2.24,1.99-3.97,3.69-5.19c1.7-1.22,3.73-1.83,6.09-1.83c2.48,0,4.49,0.59,6.03,1.77c1.54,1.18,2.57,3.01,3.09,5.49h-0.9
				c0.72-2.24,2.01-4.01,3.87-5.31c1.86-1.3,4.03-1.95,6.51-1.95c2.2,0,4.01,0.42,5.43,1.26c1.42,0.84,2.49,2.11,3.21,3.81
				c0.72,1.7,1.08,3.85,1.08,6.45v16.08c0,0.8-0.21,1.42-0.63,1.86c-0.42,0.44-1.03,0.66-1.83,0.66c-0.76,0-1.35-0.22-1.77-0.66
				c-0.42-0.44-0.63-1.06-0.63-1.86v-15.84c0-2.68-0.46-4.65-1.38-5.91c-0.92-1.26-2.48-1.89-4.68-1.89c-2.4,0-4.29,0.83-5.67,2.49
				c-1.38,1.66-2.07,3.91-2.07,6.75v14.4c0,0.8-0.21,1.42-0.63,1.86c-0.42,0.44-1.03,0.66-1.83,0.66c-0.76,0-1.35-0.22-1.77-0.66
				c-0.42-0.44-0.63-1.06-0.63-1.86v-15.84c0-2.68-0.47-4.65-1.41-5.91c-0.94-1.26-2.49-1.89-4.65-1.89c-2.4,0-4.29,0.83-5.67,2.49
				c-1.38,1.66-2.07,3.91-2.07,6.75v14.4C958,227.64,957.18,228.48,955.54,228.48z"/>
			<path d="M1016.5,228.6c-2.84,0-5.3-0.62-7.38-1.86c-2.08-1.24-3.69-2.99-4.83-5.25c-1.14-2.26-1.71-4.93-1.71-8.01
				c0-2.32,0.32-4.41,0.96-6.27s1.58-3.45,2.82-4.77c1.24-1.32,2.71-2.33,4.41-3.03c1.7-0.7,3.61-1.05,5.73-1.05
				c2.84,0,5.3,0.62,7.38,1.86c2.08,1.24,3.69,2.99,4.83,5.25c1.14,2.26,1.71,4.93,1.71,8.01c0,2.32-0.32,4.4-0.96,6.24
				c-0.64,1.84-1.58,3.43-2.82,4.77c-1.24,1.34-2.71,2.36-4.41,3.06C1020.53,228.25,1018.62,228.6,1016.5,228.6z M1016.5,224.7
				c1.8,0,3.38-0.44,4.74-1.32c1.36-0.88,2.41-2.16,3.15-3.84c0.74-1.68,1.11-3.7,1.11-6.06c0-3.64-0.81-6.42-2.43-8.34
				s-3.81-2.88-6.57-2.88c-1.84,0-3.43,0.43-4.77,1.29c-1.34,0.86-2.38,2.12-3.12,3.78c-0.74,1.66-1.11,3.71-1.11,6.15
				c0,3.6,0.82,6.37,2.46,8.31C1011.6,223.73,1013.78,224.7,1016.5,224.7z"/>
			<path d="M1073.2,228.6c-4.52,0-8.33-0.86-11.43-2.58c-3.1-1.72-5.45-4.2-7.05-7.44c-1.6-3.24-2.4-7.12-2.4-11.64
				c0-3.36,0.45-6.38,1.35-9.06c0.9-2.68,2.22-4.95,3.96-6.81c1.74-1.86,3.86-3.3,6.36-4.32c2.5-1.02,5.33-1.53,8.49-1.53
				c2.52,0,4.96,0.35,7.32,1.05c2.36,0.7,4.46,1.81,6.3,3.33c0.48,0.36,0.78,0.76,0.9,1.2c0.12,0.44,0.11,0.88-0.03,1.32
				c-0.14,0.44-0.36,0.81-0.66,1.11c-0.3,0.3-0.68,0.47-1.14,0.51c-0.46,0.04-0.93-0.1-1.41-0.42c-1.64-1.28-3.38-2.21-5.22-2.79
				c-1.84-0.58-3.88-0.87-6.12-0.87c-3.2,0-5.91,0.68-8.13,2.04c-2.22,1.36-3.9,3.32-5.04,5.88c-1.14,2.56-1.71,5.68-1.71,9.36
				c0,5.6,1.31,9.88,3.93,12.84c2.62,2.96,6.57,4.44,11.85,4.44c1.92,0,3.8-0.19,5.64-0.57c1.84-0.38,3.58-0.91,5.22-1.59
				l-1.08,2.82v-14.94h-8.58c-0.72,0-1.26-0.18-1.62-0.54c-0.36-0.36-0.54-0.84-0.54-1.44c0-0.64,0.18-1.12,0.54-1.44
				c0.36-0.32,0.9-0.48,1.62-0.48h10.74c0.68,0,1.2,0.18,1.56,0.54c0.36,0.36,0.54,0.88,0.54,1.56v15.66c0,0.6-0.1,1.1-0.3,1.5
				c-0.2,0.4-0.54,0.7-1.02,0.9c-1.68,0.68-3.69,1.25-6.03,1.71C1077.67,228.37,1075.4,228.6,1073.2,228.6z"/>
			<path d="M1099.18,191.88c-1,0-1.78-0.27-2.34-0.81c-0.56-0.54-0.84-1.27-0.84-2.19c0-0.96,0.28-1.69,0.84-2.19
				c0.56-0.5,1.34-0.75,2.34-0.75c1.04,0,1.83,0.25,2.37,0.75c0.54,0.5,0.81,1.23,0.81,2.19c0,0.92-0.27,1.65-0.81,2.19
				C1101.01,191.61,1100.22,191.88,1099.18,191.88z M1099.18,228.36c-0.8,0-1.4-0.23-1.8-0.69c-0.4-0.46-0.6-1.11-0.6-1.95v-24.54
				c0-0.84,0.2-1.48,0.6-1.92c0.4-0.44,1-0.66,1.8-0.66c0.76,0,1.36,0.22,1.8,0.66c0.44,0.44,0.66,1.08,0.66,1.92v24.54
				c0,0.84-0.21,1.49-0.63,1.95S1099.98,228.36,1099.18,228.36z"/>
			<path d="M1119.88,228.6c-2,0-3.79-0.39-5.37-1.17c-1.58-0.78-2.83-1.85-3.75-3.21c-0.92-1.36-1.38-2.88-1.38-4.56
				c0-2.16,0.55-3.86,1.65-5.1c1.1-1.24,2.92-2.12,5.46-2.64c2.54-0.52,6.01-0.78,10.41-0.78h2.7v3.18h-2.64
				c-3.24,0-5.79,0.15-7.65,0.45s-3.16,0.81-3.9,1.53c-0.74,0.72-1.11,1.74-1.11,3.06c0,1.64,0.57,2.98,1.71,4.02
				c1.14,1.04,2.69,1.56,4.65,1.56c1.6,0,3.01-0.38,4.23-1.14c1.22-0.76,2.18-1.8,2.88-3.12c0.7-1.32,1.05-2.84,1.05-4.56v-6.84
				c0-2.48-0.5-4.27-1.5-5.37c-1-1.1-2.64-1.65-4.92-1.65c-1.4,0-2.8,0.18-4.2,0.54c-1.4,0.36-2.88,0.94-4.44,1.74
				c-0.56,0.28-1.04,0.37-1.44,0.27c-0.4-0.1-0.72-0.31-0.96-0.63c-0.24-0.32-0.38-0.69-0.42-1.11c-0.04-0.42,0.05-0.83,0.27-1.23
				c0.22-0.4,0.57-0.72,1.05-0.96c1.76-0.88,3.5-1.52,5.22-1.92c1.72-0.4,3.36-0.6,4.92-0.6c2.52,0,4.6,0.41,6.24,1.23
				c1.64,0.82,2.86,2.06,3.66,3.72c0.8,1.66,1.2,3.79,1.2,6.39v16.26c0,0.8-0.19,1.42-0.57,1.86c-0.38,0.44-0.93,0.66-1.65,0.66
				c-0.76,0-1.34-0.22-1.74-0.66c-0.4-0.44-0.6-1.06-0.6-1.86v-4.68h0.54c-0.32,1.52-0.93,2.82-1.83,3.9
				c-0.9,1.08-2.01,1.92-3.33,2.52C1123,228.3,1121.52,228.6,1119.88,228.6z"/>
			<path d="M1153.6,228.6c-2.6,0-4.87-0.62-6.81-1.86c-1.94-1.24-3.44-2.99-4.5-5.25c-1.06-2.26-1.59-4.93-1.59-8.01
				c0-3.12,0.53-5.81,1.59-8.07c1.06-2.26,2.56-4,4.5-5.22c1.94-1.22,4.21-1.83,6.81-1.83c2.64,0,4.9,0.66,6.78,1.98
				c1.88,1.32,3.14,3.1,3.78,5.34h-0.66V187.8c0-0.8,0.21-1.41,0.63-1.83c0.42-0.42,1.03-0.63,1.83-0.63c0.76,0,1.35,0.21,1.77,0.63
				s0.63,1.03,0.63,1.83v38.16c0,0.8-0.2,1.42-0.6,1.86c-0.4,0.44-1,0.66-1.8,0.66c-0.76,0-1.35-0.22-1.77-0.66
				c-0.42-0.44-0.63-1.06-0.63-1.86v-5.7l0.66,0.84c-0.64,2.28-1.91,4.1-3.81,5.46C1158.51,227.92,1156.24,228.6,1153.6,228.6z
				 M1154.62,224.7c1.8,0,3.38-0.44,4.74-1.32c1.36-0.88,2.41-2.16,3.15-3.84c0.74-1.68,1.11-3.7,1.11-6.06
				c0-3.64-0.81-6.42-2.43-8.34s-3.81-2.88-6.57-2.88c-1.84,0-3.43,0.43-4.77,1.29c-1.34,0.86-2.38,2.12-3.12,3.78
				c-0.74,1.66-1.11,3.71-1.11,6.15c0,3.6,0.82,6.37,2.46,8.31C1149.72,223.73,1151.9,224.7,1154.62,224.7z"/>
			<path d="M1186.66,228.6c-2,0-3.79-0.39-5.37-1.17c-1.58-0.78-2.83-1.85-3.75-3.21c-0.92-1.36-1.38-2.88-1.38-4.56
				c0-2.16,0.55-3.86,1.65-5.1c1.1-1.24,2.92-2.12,5.46-2.64c2.54-0.52,6.01-0.78,10.41-0.78h2.7v3.18h-2.64
				c-3.24,0-5.79,0.15-7.65,0.45s-3.16,0.81-3.9,1.53c-0.74,0.72-1.11,1.74-1.11,3.06c0,1.64,0.57,2.98,1.71,4.02
				c1.14,1.04,2.69,1.56,4.65,1.56c1.6,0,3.01-0.38,4.23-1.14c1.22-0.76,2.18-1.8,2.88-3.12c0.7-1.32,1.05-2.84,1.05-4.56v-6.84
				c0-2.48-0.5-4.27-1.5-5.37c-1-1.1-2.64-1.65-4.92-1.65c-1.4,0-2.8,0.18-4.2,0.54c-1.4,0.36-2.88,0.94-4.44,1.74
				c-0.56,0.28-1.04,0.37-1.44,0.27c-0.4-0.1-0.72-0.31-0.96-0.63c-0.24-0.32-0.38-0.69-0.42-1.11c-0.04-0.42,0.05-0.83,0.27-1.23
				c0.22-0.4,0.57-0.72,1.05-0.96c1.76-0.88,3.5-1.52,5.22-1.92c1.72-0.4,3.36-0.6,4.92-0.6c2.52,0,4.6,0.41,6.24,1.23
				c1.64,0.82,2.86,2.06,3.66,3.72c0.8,1.66,1.2,3.79,1.2,6.39v16.26c0,0.8-0.19,1.42-0.57,1.86c-0.38,0.44-0.93,0.66-1.65,0.66
				c-0.76,0-1.34-0.22-1.74-0.66c-0.4-0.44-0.6-1.06-0.6-1.86v-4.68h0.54c-0.32,1.52-0.93,2.82-1.83,3.9
				c-0.9,1.08-2.01,1.92-3.33,2.52C1189.78,228.3,1188.3,228.6,1186.66,228.6z"/>
			<path d="M1237.9,228.6c-3.08,0-5.73-0.61-7.95-1.83c-2.22-1.22-3.94-2.95-5.16-5.19c-1.22-2.24-1.83-4.92-1.83-8.04
				c0-3.04,0.6-5.69,1.8-7.95c1.2-2.26,2.85-4.03,4.95-5.31c2.1-1.28,4.53-1.92,7.29-1.92c1.96,0,3.72,0.33,5.28,0.99
				c1.56,0.66,2.89,1.61,3.99,2.85c1.1,1.24,1.94,2.74,2.52,4.5c0.58,1.76,0.87,3.74,0.87,5.94c0,0.64-0.18,1.11-0.54,1.41
				c-0.36,0.3-0.88,0.45-1.56,0.45h-20.88v-3.18h19.74l-0.96,0.78c0-2.16-0.32-3.99-0.96-5.49s-1.57-2.65-2.79-3.45
				c-1.22-0.8-2.75-1.2-4.59-1.2c-2.04,0-3.77,0.47-5.19,1.41c-1.42,0.94-2.49,2.24-3.21,3.9c-0.72,1.66-1.08,3.59-1.08,5.79v0.36
				c0,3.68,0.89,6.48,2.67,8.4c1.78,1.92,4.31,2.88,7.59,2.88c1.36,0,2.71-0.18,4.05-0.54c1.34-0.36,2.65-0.96,3.93-1.8
				c0.56-0.36,1.07-0.53,1.53-0.51c0.46,0.02,0.83,0.16,1.11,0.42c0.28,0.26,0.47,0.58,0.57,0.96c0.1,0.38,0.06,0.79-0.12,1.23
				c-0.18,0.44-0.53,0.82-1.05,1.14c-1.32,0.96-2.88,1.7-4.68,2.22C1241.44,228.34,1239.66,228.6,1237.9,228.6z"/>
			<path d="M774.58,300.6c-1.8,0-3.61-0.22-5.43-0.66c-1.82-0.44-3.51-1.2-5.07-2.28c-0.4-0.28-0.68-0.61-0.84-0.99
				c-0.16-0.38-0.21-0.76-0.15-1.14c0.06-0.38,0.22-0.71,0.48-0.99c0.26-0.28,0.58-0.45,0.96-0.51c0.38-0.06,0.81,0.03,1.29,0.27
				c1.56,0.96,3.07,1.63,4.53,2.01c1.46,0.38,2.91,0.57,4.35,0.57c2.28,0,4-0.42,5.16-1.26s1.74-1.98,1.74-3.42
				c0-1.12-0.38-2.01-1.14-2.67c-0.76-0.66-1.96-1.17-3.6-1.53l-5.46-1.2c-2.52-0.52-4.39-1.42-5.61-2.7
				c-1.22-1.28-1.83-2.94-1.83-4.98c0-1.8,0.47-3.35,1.41-4.65c0.94-1.3,2.27-2.31,3.99-3.03c1.72-0.72,3.72-1.08,6-1.08
				c1.76,0,3.43,0.23,5.01,0.69c1.58,0.46,3.01,1.19,4.29,2.19c0.4,0.28,0.67,0.61,0.81,0.99c0.14,0.38,0.16,0.76,0.06,1.14
				c-0.1,0.38-0.29,0.7-0.57,0.96c-0.28,0.26-0.62,0.41-1.02,0.45c-0.4,0.04-0.82-0.08-1.26-0.36c-1.2-0.8-2.42-1.39-3.66-1.77
				c-1.24-0.38-2.46-0.57-3.66-0.57c-2.24,0-3.94,0.44-5.1,1.32c-1.16,0.88-1.74,2.04-1.74,3.48c0,1.12,0.36,2.04,1.08,2.76
				c0.72,0.72,1.84,1.24,3.36,1.56l5.46,1.14c2.6,0.56,4.55,1.45,5.85,2.67c1.3,1.22,1.95,2.87,1.95,4.95c0,2.64-1.06,4.74-3.18,6.3
				C780.92,299.82,778.1,300.6,774.58,300.6z"/>
			<path d="M805.72,300.6c-2.84,0-5.3-0.62-7.38-1.86c-2.08-1.24-3.69-2.99-4.83-5.25c-1.14-2.26-1.71-4.93-1.71-8.01
				c0-2.32,0.32-4.41,0.96-6.27s1.58-3.45,2.82-4.77c1.24-1.32,2.71-2.33,4.41-3.03c1.7-0.7,3.61-1.05,5.73-1.05
				c2.84,0,5.3,0.62,7.38,1.86c2.08,1.24,3.69,2.99,4.83,5.25c1.14,2.26,1.71,4.93,1.71,8.01c0,2.32-0.32,4.4-0.96,6.24
				c-0.64,1.84-1.58,3.43-2.82,4.77c-1.24,1.34-2.71,2.36-4.41,3.06C809.75,300.25,807.84,300.6,805.72,300.6z M805.72,296.7
				c1.8,0,3.38-0.44,4.74-1.32c1.36-0.88,2.41-2.16,3.15-3.84c0.74-1.68,1.11-3.7,1.11-6.06c0-3.64-0.81-6.42-2.43-8.34
				s-3.81-2.88-6.57-2.88c-1.84,0-3.43,0.43-4.77,1.29c-1.34,0.86-2.38,2.12-3.12,3.78c-0.74,1.66-1.11,3.71-1.11,6.15
				c0,3.6,0.82,6.37,2.46,8.31C800.82,295.73,803,296.7,805.72,296.7z"/>
			<path d="M829.36,300.48c-0.8,0-1.4-0.22-1.8-0.66c-0.4-0.44-0.6-1.06-0.6-1.86v-25.02c0-0.8,0.2-1.41,0.6-1.83
				c0.4-0.42,0.98-0.63,1.74-0.63c0.76,0,1.35,0.21,1.77,0.63c0.42,0.42,0.63,1.03,0.63,1.83v5.16l-0.66-0.72
				c0.84-2.32,2.21-4.07,4.11-5.25c1.9-1.18,4.09-1.77,6.57-1.77c2.32,0,4.25,0.42,5.79,1.26c1.54,0.84,2.69,2.11,3.45,3.81
				c0.76,1.7,1.14,3.85,1.14,6.45v16.08c0,0.8-0.21,1.42-0.63,1.86c-0.42,0.44-1.01,0.66-1.77,0.66c-0.8,0-1.41-0.22-1.83-0.66
				c-0.42-0.44-0.63-1.06-0.63-1.86v-15.78c0-2.72-0.53-4.71-1.59-5.97c-1.06-1.26-2.75-1.89-5.07-1.89c-2.68,0-4.81,0.83-6.39,2.49
				c-1.58,1.66-2.37,3.87-2.37,6.63v14.52C831.82,299.64,831,300.48,829.36,300.48z"/>
			<path d="M873.16,300.6c-2.84,0-5.3-0.62-7.38-1.86c-2.08-1.24-3.69-2.99-4.83-5.25c-1.14-2.26-1.71-4.93-1.71-8.01
				c0-2.32,0.32-4.41,0.96-6.27s1.58-3.45,2.82-4.77c1.24-1.32,2.71-2.33,4.41-3.03c1.7-0.7,3.61-1.05,5.73-1.05
				c2.84,0,5.3,0.62,7.38,1.86c2.08,1.24,3.69,2.99,4.83,5.25c1.14,2.26,1.71,4.93,1.71,8.01c0,2.32-0.32,4.4-0.96,6.24
				c-0.64,1.84-1.58,3.43-2.82,4.77c-1.24,1.34-2.71,2.36-4.41,3.06C877.19,300.25,875.28,300.6,873.16,300.6z M873.16,296.7
				c1.8,0,3.38-0.44,4.74-1.32c1.36-0.88,2.41-2.16,3.15-3.84c0.74-1.68,1.11-3.7,1.11-6.06c0-3.64-0.81-6.42-2.43-8.34
				s-3.81-2.88-6.57-2.88c-1.84,0-3.43,0.43-4.77,1.29c-1.34,0.86-2.38,2.12-3.12,3.78c-0.74,1.66-1.11,3.71-1.11,6.15
				c0,3.6,0.82,6.37,2.46,8.31C868.26,295.73,870.44,296.7,873.16,296.7z"/>
			<path d="M922.78,311.4c-2.12,0-4.19-0.25-6.21-0.75c-2.02-0.5-3.85-1.29-5.49-2.37c-0.48-0.28-0.79-0.62-0.93-1.02
				c-0.14-0.4-0.17-0.79-0.09-1.17c0.08-0.38,0.26-0.72,0.54-1.02c0.28-0.3,0.61-0.49,0.99-0.57c0.38-0.08,0.77-0.02,1.17,0.18
				c1.76,1.08,3.44,1.82,5.04,2.22c1.6,0.4,3.18,0.6,4.74,0.6c2.84,0,4.99-0.76,6.45-2.28c1.46-1.52,2.19-3.72,2.19-6.6v-6.78h0.6
				c-0.6,2.32-1.87,4.16-3.81,5.52c-1.94,1.36-4.21,2.04-6.81,2.04c-2.68,0-5-0.61-6.96-1.83c-1.96-1.22-3.47-2.93-4.53-5.13
				c-1.06-2.2-1.59-4.74-1.59-7.62c0-2.16,0.3-4.13,0.9-5.91c0.6-1.78,1.47-3.3,2.61-4.56c1.14-1.26,2.52-2.24,4.14-2.94
				c1.62-0.7,3.43-1.05,5.43-1.05c2.64,0,4.92,0.67,6.84,2.01c1.92,1.34,3.16,3.15,3.72,5.43l-0.6,0.72v-5.58
				c0-0.8,0.21-1.41,0.63-1.83c0.42-0.42,1.01-0.63,1.77-0.63c0.8,0,1.4,0.21,1.8,0.63c0.4,0.42,0.6,1.03,0.6,1.83v25.02
				c0,4.44-1.11,7.79-3.33,10.05C930.37,310.27,927.1,311.4,922.78,311.4z M922.06,295.44c1.88,0,3.5-0.43,4.86-1.29
				c1.36-0.86,2.41-2.09,3.15-3.69c0.74-1.6,1.11-3.48,1.11-5.64c0-3.24-0.82-5.81-2.46-7.71c-1.64-1.9-3.86-2.85-6.66-2.85
				c-1.84,0-3.44,0.43-4.8,1.29c-1.36,0.86-2.41,2.08-3.15,3.66c-0.74,1.58-1.11,3.45-1.11,5.61c0,3.24,0.82,5.82,2.46,7.74
				C917.1,294.48,919.3,295.44,922.06,295.44z"/>
			<path d="M947.5,300.48c-0.8,0-1.41-0.22-1.83-0.66c-0.42-0.44-0.63-1.06-0.63-1.86v-25.02c0-0.8,0.2-1.41,0.6-1.83
				c0.4-0.42,0.98-0.63,1.74-0.63c0.76,0,1.35,0.21,1.77,0.63c0.42,0.42,0.63,1.03,0.63,1.83v4.86h-0.6
				c0.64-2.36,1.86-4.18,3.66-5.46c1.8-1.28,4.02-1.96,6.66-2.04c0.6-0.04,1.08,0.09,1.44,0.39c0.36,0.3,0.56,0.81,0.6,1.53
				c0.04,0.68-0.12,1.22-0.48,1.62c-0.36,0.4-0.92,0.64-1.68,0.72l-0.96,0.12c-2.72,0.24-4.81,1.11-6.27,2.61
				c-1.46,1.5-2.19,3.55-2.19,6.15v14.52c0,0.8-0.21,1.42-0.63,1.86C948.91,300.26,948.3,300.48,947.5,300.48z"/>
			<path d="M975.7,300.6c-2,0-3.79-0.39-5.37-1.17c-1.58-0.78-2.83-1.85-3.75-3.21c-0.92-1.36-1.38-2.88-1.38-4.56
				c0-2.16,0.55-3.86,1.65-5.1c1.1-1.24,2.92-2.12,5.46-2.64c2.54-0.52,6.01-0.78,10.41-0.78h2.7v3.18h-2.64
				c-3.24,0-5.79,0.15-7.65,0.45s-3.16,0.81-3.9,1.53c-0.74,0.72-1.11,1.74-1.11,3.06c0,1.64,0.57,2.98,1.71,4.02
				c1.14,1.04,2.69,1.56,4.65,1.56c1.6,0,3.01-0.38,4.23-1.14c1.22-0.76,2.18-1.8,2.88-3.12c0.7-1.32,1.05-2.84,1.05-4.56v-6.84
				c0-2.48-0.5-4.27-1.5-5.37c-1-1.1-2.64-1.65-4.92-1.65c-1.4,0-2.8,0.18-4.2,0.54c-1.4,0.36-2.88,0.94-4.44,1.74
				c-0.56,0.28-1.04,0.37-1.44,0.27c-0.4-0.1-0.72-0.31-0.96-0.63c-0.24-0.32-0.38-0.69-0.42-1.11c-0.04-0.42,0.05-0.83,0.27-1.23
				c0.22-0.4,0.57-0.72,1.05-0.96c1.76-0.88,3.5-1.52,5.22-1.92c1.72-0.4,3.36-0.6,4.92-0.6c2.52,0,4.6,0.41,6.24,1.23
				c1.64,0.82,2.86,2.06,3.66,3.72c0.8,1.66,1.2,3.79,1.2,6.39v16.26c0,0.8-0.19,1.42-0.57,1.86c-0.38,0.44-0.93,0.66-1.65,0.66
				c-0.76,0-1.34-0.22-1.74-0.66c-0.4-0.44-0.6-1.06-0.6-1.86v-4.68h0.54c-0.32,1.52-0.93,2.82-1.83,3.9
				c-0.9,1.08-2.01,1.92-3.33,2.52C978.82,300.3,977.34,300.6,975.7,300.6z"/>
			<path d="M1000.72,311.28c-0.8,0-1.4-0.21-1.8-0.63c-0.4-0.42-0.6-1.03-0.6-1.83v-35.88c0-0.8,0.2-1.41,0.6-1.83
				c0.4-0.42,0.98-0.63,1.74-0.63c0.8,0,1.41,0.21,1.83,0.63c0.42,0.42,0.63,1.03,0.63,1.83v5.7l-0.66-0.84
				c0.64-2.28,1.91-4.09,3.81-5.43c1.9-1.34,4.17-2.01,6.81-2.01c2.6,0,4.87,0.61,6.81,1.83c1.94,1.22,3.44,2.96,4.5,5.22
				c1.06,2.26,1.59,4.95,1.59,8.07c0,3.08-0.53,5.75-1.59,8.01c-1.06,2.26-2.55,4.01-4.47,5.25c-1.92,1.24-4.2,1.86-6.84,1.86
				c-2.64,0-4.9-0.67-6.78-2.01c-1.88-1.34-3.16-3.13-3.84-5.37h0.72v15.6c0,0.8-0.22,1.41-0.66,1.83
				C1002.08,311.07,1001.48,311.28,1000.72,311.28z M1012.06,296.7c1.84,0,3.43-0.44,4.77-1.32c1.34-0.88,2.38-2.16,3.12-3.84
				c0.74-1.68,1.11-3.7,1.11-6.06c0-3.64-0.81-6.42-2.43-8.34s-3.81-2.88-6.57-2.88c-1.8,0-3.38,0.43-4.74,1.29
				c-1.36,0.86-2.41,2.12-3.15,3.78c-0.74,1.66-1.11,3.71-1.11,6.15c0,3.6,0.82,6.37,2.46,8.31
				C1007.16,295.73,1009.34,296.7,1012.06,296.7z"/>
			<path d="M1035.7,300.48c-0.8,0-1.4-0.22-1.8-0.66c-0.4-0.44-0.6-1.06-0.6-1.86V259.8c0-0.8,0.2-1.41,0.6-1.83
				c0.4-0.42,1-0.63,1.8-0.63c0.76,0,1.36,0.21,1.8,0.63c0.44,0.42,0.66,1.03,0.66,1.83v17.58h-0.78c0.84-2.32,2.21-4.07,4.11-5.25
				c1.9-1.18,4.09-1.77,6.57-1.77c2.32,0,4.25,0.42,5.79,1.26c1.54,0.84,2.69,2.11,3.45,3.81c0.76,1.7,1.14,3.85,1.14,6.45v16.08
				c0,0.8-0.21,1.42-0.63,1.86c-0.42,0.44-1.01,0.66-1.77,0.66c-0.8,0-1.41-0.22-1.83-0.66c-0.42-0.44-0.63-1.06-0.63-1.86v-15.78
				c0-2.72-0.53-4.71-1.59-5.97c-1.06-1.26-2.75-1.89-5.07-1.89c-2.68,0-4.81,0.83-6.39,2.49c-1.58,1.66-2.37,3.87-2.37,6.63v14.52
				C1038.16,299.64,1037.34,300.48,1035.7,300.48z"/>
			<path d="M1069.78,263.88c-1,0-1.78-0.27-2.34-0.81c-0.56-0.54-0.84-1.27-0.84-2.19c0-0.96,0.28-1.69,0.84-2.19
				c0.56-0.5,1.34-0.75,2.34-0.75c1.04,0,1.83,0.25,2.37,0.75c0.54,0.5,0.81,1.23,0.81,2.19c0,0.92-0.27,1.65-0.81,2.19
				C1071.61,263.61,1070.82,263.88,1069.78,263.88z M1069.78,300.36c-0.8,0-1.4-0.23-1.8-0.69c-0.4-0.46-0.6-1.11-0.6-1.95v-24.54
				c0-0.84,0.2-1.48,0.6-1.92c0.4-0.44,1-0.66,1.8-0.66c0.76,0,1.36,0.22,1.8,0.66c0.44,0.44,0.66,1.08,0.66,1.92v24.54
				c0,0.84-0.21,1.49-0.63,1.95S1070.58,300.36,1069.78,300.36z"/>
			<path d="M1093.66,300.6c-2.92,0-5.44-0.64-7.56-1.92c-2.12-1.28-3.75-3.07-4.89-5.37c-1.14-2.3-1.71-4.97-1.71-8.01
				c0-2.32,0.32-4.4,0.96-6.24c0.64-1.84,1.58-3.41,2.82-4.71c1.24-1.3,2.73-2.29,4.47-2.97c1.74-0.68,3.71-1.02,5.91-1.02
				c1.44,0,2.94,0.22,4.5,0.66c1.56,0.44,2.98,1.2,4.26,2.28c0.4,0.28,0.66,0.62,0.78,1.02c0.12,0.4,0.12,0.79,0,1.17
				c-0.12,0.38-0.32,0.7-0.6,0.96c-0.28,0.26-0.63,0.41-1.05,0.45c-0.42,0.04-0.85-0.1-1.29-0.42c-1.04-0.8-2.1-1.36-3.18-1.68
				c-1.08-0.32-2.12-0.48-3.12-0.48c-1.56,0-2.92,0.25-4.08,0.75c-1.16,0.5-2.14,1.21-2.94,2.13c-0.8,0.92-1.41,2.06-1.83,3.42
				c-0.42,1.36-0.63,2.94-0.63,4.74c0,3.48,0.82,6.23,2.46,8.25c1.64,2.02,3.98,3.03,7.02,3.03c1,0,2.03-0.16,3.09-0.48
				c1.06-0.32,2.13-0.88,3.21-1.68c0.44-0.32,0.86-0.46,1.26-0.42c0.4,0.04,0.74,0.19,1.02,0.45c0.28,0.26,0.47,0.59,0.57,0.99
				c0.1,0.4,0.09,0.79-0.03,1.17c-0.12,0.38-0.38,0.71-0.78,0.99c-1.28,1.04-2.68,1.79-4.2,2.25
				C1096.58,300.37,1095.1,300.6,1093.66,300.6z"/>
			<path d="M1135.66,300.6c-2.6,0-4.87-0.62-6.81-1.86c-1.94-1.24-3.44-2.99-4.5-5.25c-1.06-2.26-1.59-4.93-1.59-8.01
				c0-3.12,0.53-5.81,1.59-8.07c1.06-2.26,2.56-4,4.5-5.22c1.94-1.22,4.21-1.83,6.81-1.83c2.64,0,4.9,0.66,6.78,1.98
				c1.88,1.32,3.14,3.1,3.78,5.34h-0.66V259.8c0-0.8,0.21-1.41,0.63-1.83c0.42-0.42,1.03-0.63,1.83-0.63c0.76,0,1.35,0.21,1.77,0.63
				s0.63,1.03,0.63,1.83v38.16c0,0.8-0.2,1.42-0.6,1.86c-0.4,0.44-1,0.66-1.8,0.66c-0.76,0-1.35-0.22-1.77-0.66
				c-0.42-0.44-0.63-1.06-0.63-1.86v-5.7l0.66,0.84c-0.64,2.28-1.91,4.1-3.81,5.46C1140.57,299.92,1138.3,300.6,1135.66,300.6z
				 M1136.68,296.7c1.8,0,3.38-0.44,4.74-1.32c1.36-0.88,2.41-2.16,3.15-3.84c0.74-1.68,1.11-3.7,1.11-6.06
				c0-3.64-0.81-6.42-2.43-8.34s-3.81-2.88-6.57-2.88c-1.84,0-3.43,0.43-4.77,1.29c-1.34,0.86-2.38,2.12-3.12,3.78
				c-0.74,1.66-1.11,3.71-1.11,6.15c0,3.6,0.82,6.37,2.46,8.31C1131.78,295.73,1133.96,296.7,1136.68,296.7z"/>
			<path d="M1172.68,300.6c-3.08,0-5.73-0.61-7.95-1.83c-2.22-1.22-3.94-2.95-5.16-5.19c-1.22-2.24-1.83-4.92-1.83-8.04
				c0-3.04,0.6-5.69,1.8-7.95c1.2-2.26,2.85-4.03,4.95-5.31c2.1-1.28,4.53-1.92,7.29-1.92c1.96,0,3.72,0.33,5.28,0.99
				c1.56,0.66,2.89,1.61,3.99,2.85c1.1,1.24,1.94,2.74,2.52,4.5c0.58,1.76,0.87,3.74,0.87,5.94c0,0.64-0.18,1.11-0.54,1.41
				c-0.36,0.3-0.88,0.45-1.56,0.45h-20.88v-3.18h19.74l-0.96,0.78c0-2.16-0.32-3.99-0.96-5.49s-1.57-2.65-2.79-3.45
				c-1.22-0.8-2.75-1.2-4.59-1.2c-2.04,0-3.77,0.47-5.19,1.41c-1.42,0.94-2.49,2.24-3.21,3.9c-0.72,1.66-1.08,3.59-1.08,5.79v0.36
				c0,3.68,0.89,6.48,2.67,8.4c1.78,1.92,4.31,2.88,7.59,2.88c1.36,0,2.71-0.18,4.05-0.54c1.34-0.36,2.65-0.96,3.93-1.8
				c0.56-0.36,1.07-0.53,1.53-0.51c0.46,0.02,0.83,0.16,1.11,0.42c0.28,0.26,0.47,0.58,0.57,0.96c0.1,0.38,0.06,0.79-0.12,1.23
				c-0.18,0.44-0.53,0.82-1.05,1.14c-1.32,0.96-2.88,1.7-4.68,2.22C1176.22,300.34,1174.44,300.6,1172.68,300.6z"/>
			<path d="M1201.3,300.6c-1.8,0-3.61-0.22-5.43-0.66c-1.82-0.44-3.51-1.2-5.07-2.28c-0.4-0.28-0.68-0.61-0.84-0.99
				c-0.16-0.38-0.21-0.76-0.15-1.14c0.06-0.38,0.22-0.71,0.48-0.99c0.26-0.28,0.58-0.45,0.96-0.51c0.38-0.06,0.81,0.03,1.29,0.27
				c1.56,0.96,3.07,1.63,4.53,2.01c1.46,0.38,2.91,0.57,4.35,0.57c2.28,0,4-0.42,5.16-1.26s1.74-1.98,1.74-3.42
				c0-1.12-0.38-2.01-1.14-2.67c-0.76-0.66-1.96-1.17-3.6-1.53l-5.46-1.2c-2.52-0.52-4.39-1.42-5.61-2.7
				c-1.22-1.28-1.83-2.94-1.83-4.98c0-1.8,0.47-3.35,1.41-4.65c0.94-1.3,2.27-2.31,3.99-3.03c1.72-0.72,3.72-1.08,6-1.08
				c1.76,0,3.43,0.23,5.01,0.69c1.58,0.46,3.01,1.19,4.29,2.19c0.4,0.28,0.67,0.61,0.81,0.99c0.14,0.38,0.16,0.76,0.06,1.14
				c-0.1,0.38-0.29,0.7-0.57,0.96c-0.28,0.26-0.62,0.41-1.02,0.45c-0.4,0.04-0.82-0.08-1.26-0.36c-1.2-0.8-2.42-1.39-3.66-1.77
				c-1.24-0.38-2.46-0.57-3.66-0.57c-2.24,0-3.94,0.44-5.1,1.32c-1.16,0.88-1.74,2.04-1.74,3.48c0,1.12,0.36,2.04,1.08,2.76
				c0.72,0.72,1.84,1.24,3.36,1.56l5.46,1.14c2.6,0.56,4.55,1.45,5.85,2.67c1.3,1.22,1.95,2.87,1.95,4.95c0,2.64-1.06,4.74-3.18,6.3
				C1207.64,299.82,1204.82,300.6,1201.3,300.6z"/>
			<path d="M1222.72,263.88c-1,0-1.78-0.27-2.34-0.81c-0.56-0.54-0.84-1.27-0.84-2.19c0-0.96,0.28-1.69,0.84-2.19
				c0.56-0.5,1.34-0.75,2.34-0.75c1.04,0,1.83,0.25,2.37,0.75c0.54,0.5,0.81,1.23,0.81,2.19c0,0.92-0.27,1.65-0.81,2.19
				C1224.55,263.61,1223.76,263.88,1222.72,263.88z M1222.72,300.36c-0.8,0-1.4-0.23-1.8-0.69c-0.4-0.46-0.6-1.11-0.6-1.95v-24.54
				c0-0.84,0.2-1.48,0.6-1.92c0.4-0.44,1-0.66,1.8-0.66c0.76,0,1.36,0.22,1.8,0.66c0.44,0.44,0.66,1.08,0.66,1.92v24.54
				c0,0.84-0.21,1.49-0.63,1.95S1223.52,300.36,1222.72,300.36z"/>
			<path d="M1247.14,311.4c-2.12,0-4.19-0.25-6.21-0.75c-2.02-0.5-3.85-1.29-5.49-2.37c-0.48-0.28-0.79-0.62-0.93-1.02
				c-0.14-0.4-0.17-0.79-0.09-1.17c0.08-0.38,0.26-0.72,0.54-1.02c0.28-0.3,0.61-0.49,0.99-0.57c0.38-0.08,0.77-0.02,1.17,0.18
				c1.76,1.08,3.44,1.82,5.04,2.22c1.6,0.4,3.18,0.6,4.74,0.6c2.84,0,4.99-0.76,6.45-2.28c1.46-1.52,2.19-3.72,2.19-6.6v-6.78h0.6
				c-0.6,2.32-1.87,4.16-3.81,5.52c-1.94,1.36-4.21,2.04-6.81,2.04c-2.68,0-5-0.61-6.96-1.83c-1.96-1.22-3.47-2.93-4.53-5.13
				c-1.06-2.2-1.59-4.74-1.59-7.62c0-2.16,0.3-4.13,0.9-5.91c0.6-1.78,1.47-3.3,2.61-4.56c1.14-1.26,2.52-2.24,4.14-2.94
				c1.62-0.7,3.43-1.05,5.43-1.05c2.64,0,4.92,0.67,6.84,2.01c1.92,1.34,3.16,3.15,3.72,5.43l-0.6,0.72v-5.58
				c0-0.8,0.21-1.41,0.63-1.83c0.42-0.42,1.01-0.63,1.77-0.63c0.8,0,1.4,0.21,1.8,0.63c0.4,0.42,0.6,1.03,0.6,1.83v25.02
				c0,4.44-1.11,7.79-3.33,10.05C1254.73,310.27,1251.46,311.4,1247.14,311.4z M1246.42,295.44c1.88,0,3.5-0.43,4.86-1.29
				c1.36-0.86,2.41-2.09,3.15-3.69c0.74-1.6,1.11-3.48,1.11-5.64c0-3.24-0.82-5.81-2.46-7.71c-1.64-1.9-3.86-2.85-6.66-2.85
				c-1.84,0-3.44,0.43-4.8,1.29c-1.36,0.86-2.41,2.08-3.15,3.66c-0.74,1.58-1.11,3.45-1.11,5.61c0,3.24,0.82,5.82,2.46,7.74
				C1241.46,294.48,1243.66,295.44,1246.42,295.44z"/>
			<path d="M1271.8,300.48c-0.8,0-1.4-0.22-1.8-0.66c-0.4-0.44-0.6-1.06-0.6-1.86v-25.02c0-0.8,0.2-1.41,0.6-1.83
				c0.4-0.42,0.98-0.63,1.74-0.63c0.76,0,1.35,0.21,1.77,0.63c0.42,0.42,0.63,1.03,0.63,1.83v5.16l-0.66-0.72
				c0.84-2.32,2.21-4.07,4.11-5.25c1.9-1.18,4.09-1.77,6.57-1.77c2.32,0,4.25,0.42,5.79,1.26c1.54,0.84,2.69,2.11,3.45,3.81
				c0.76,1.7,1.14,3.85,1.14,6.45v16.08c0,0.8-0.21,1.42-0.63,1.86c-0.42,0.44-1.01,0.66-1.77,0.66c-0.8,0-1.41-0.22-1.83-0.66
				c-0.42-0.44-0.63-1.06-0.63-1.86v-15.78c0-2.72-0.53-4.71-1.59-5.97c-1.06-1.26-2.75-1.89-5.07-1.89c-2.68,0-4.81,0.83-6.39,2.49
				c-1.58,1.66-2.37,3.87-2.37,6.63v14.52C1274.26,299.64,1273.44,300.48,1271.8,300.48z"/>
			<path d="M1316.62,300.6c-3.08,0-5.73-0.61-7.95-1.83c-2.22-1.22-3.94-2.95-5.16-5.19c-1.22-2.24-1.83-4.92-1.83-8.04
				c0-3.04,0.6-5.69,1.8-7.95c1.2-2.26,2.85-4.03,4.95-5.31c2.1-1.28,4.53-1.92,7.29-1.92c1.96,0,3.72,0.33,5.28,0.99
				c1.56,0.66,2.89,1.61,3.99,2.85c1.1,1.24,1.94,2.74,2.52,4.5c0.58,1.76,0.87,3.74,0.87,5.94c0,0.64-0.18,1.11-0.54,1.41
				c-0.36,0.3-0.88,0.45-1.56,0.45h-20.88v-3.18h19.74l-0.96,0.78c0-2.16-0.32-3.99-0.96-5.49s-1.57-2.65-2.79-3.45
				c-1.22-0.8-2.75-1.2-4.59-1.2c-2.04,0-3.77,0.47-5.19,1.41c-1.42,0.94-2.49,2.24-3.21,3.9c-0.72,1.66-1.08,3.59-1.08,5.79v0.36
				c0,3.68,0.89,6.48,2.67,8.4c1.78,1.92,4.31,2.88,7.59,2.88c1.36,0,2.71-0.18,4.05-0.54c1.34-0.36,2.65-0.96,3.93-1.8
				c0.56-0.36,1.07-0.53,1.53-0.51c0.46,0.02,0.83,0.16,1.11,0.42c0.28,0.26,0.47,0.58,0.57,0.96c0.1,0.38,0.06,0.79-0.12,1.23
				c-0.18,0.44-0.53,0.82-1.05,1.14c-1.32,0.96-2.88,1.7-4.68,2.22C1320.16,300.34,1318.38,300.6,1316.62,300.6z"/>
			<path d="M1337.86,300.48c-0.8,0-1.41-0.22-1.83-0.66c-0.42-0.44-0.63-1.06-0.63-1.86v-25.02c0-0.8,0.2-1.41,0.6-1.83
				c0.4-0.42,0.98-0.63,1.74-0.63c0.76,0,1.35,0.21,1.77,0.63c0.42,0.42,0.63,1.03,0.63,1.83v4.86h-0.6
				c0.64-2.36,1.86-4.18,3.66-5.46c1.8-1.28,4.02-1.96,6.66-2.04c0.6-0.04,1.08,0.09,1.44,0.39c0.36,0.3,0.56,0.81,0.6,1.53
				c0.04,0.68-0.12,1.22-0.48,1.62c-0.36,0.4-0.92,0.64-1.68,0.72l-0.96,0.12c-2.72,0.24-4.81,1.11-6.27,2.61
				c-1.46,1.5-2.19,3.55-2.19,6.15v14.52c0,0.8-0.21,1.42-0.63,1.86C1339.27,300.26,1338.66,300.48,1337.86,300.48z"/>
		</g>
	</g>
	<g>
		<g>
			<path d="M771.52,421.3c-1.13,0-2.23-0.1-3.31-0.29c-1.08-0.19-2.08-0.47-3.01-0.83c-0.92-0.36-1.76-0.82-2.5-1.37
				c-0.29-0.22-0.49-0.46-0.59-0.74c-0.11-0.28-0.13-0.55-0.07-0.83c0.06-0.28,0.18-0.51,0.36-0.7c0.18-0.19,0.4-0.3,0.67-0.32
				c0.26-0.02,0.55,0.06,0.86,0.25c1.08,0.77,2.23,1.33,3.46,1.67c1.22,0.35,2.6,0.52,4.14,0.52c2.16,0,3.76-0.4,4.81-1.21
				c1.04-0.8,1.57-1.87,1.57-3.19c0-1.08-0.38-1.93-1.13-2.54c-0.76-0.61-2.02-1.1-3.8-1.46l-3.74-0.76
				c-2.26-0.48-3.94-1.27-5.06-2.36c-1.12-1.09-1.67-2.55-1.67-4.37c0-1.13,0.23-2.15,0.68-3.08c0.46-0.92,1.09-1.72,1.91-2.38
				c0.82-0.66,1.79-1.17,2.92-1.53s2.38-0.54,3.74-0.54c1.51,0,2.92,0.21,4.23,0.63c1.31,0.42,2.49,1.05,3.55,1.89
				c0.26,0.22,0.44,0.46,0.54,0.74c0.1,0.28,0.11,0.54,0.04,0.79s-0.2,0.46-0.38,0.63c-0.18,0.17-0.41,0.26-0.68,0.29
				s-0.58-0.07-0.92-0.29c-0.96-0.72-1.96-1.24-2.99-1.57c-1.03-0.32-2.17-0.49-3.42-0.49c-1.27,0-2.37,0.19-3.29,0.58
				c-0.92,0.38-1.64,0.94-2.16,1.67c-0.52,0.73-0.77,1.58-0.77,2.54c0,1.15,0.35,2.06,1.06,2.74s1.87,1.16,3.47,1.48l3.74,0.79
				c2.42,0.5,4.22,1.27,5.38,2.29c1.16,1.02,1.75,2.41,1.75,4.16c0,1.06-0.22,2.03-0.65,2.92c-0.43,0.89-1.06,1.65-1.87,2.29
				c-0.82,0.64-1.8,1.12-2.95,1.46C774.26,421.13,772.96,421.3,771.52,421.3z"/>
			<path d="M791.25,421.3c-1.42,0-2.59-0.26-3.51-0.77c-0.92-0.52-1.62-1.29-2.09-2.32s-0.7-2.32-0.7-3.85v-9.65
				c0-0.5,0.13-0.88,0.38-1.12c0.25-0.24,0.61-0.36,1.06-0.36c0.48,0,0.85,0.12,1.1,0.36c0.25,0.24,0.38,0.61,0.38,1.12v9.61
				c0,1.54,0.32,2.68,0.95,3.44c0.64,0.76,1.64,1.13,3.01,1.13c1.49,0,2.7-0.5,3.64-1.51c0.94-1.01,1.4-2.33,1.4-3.96v-8.71
				c0-0.5,0.13-0.88,0.38-1.12c0.25-0.24,0.62-0.36,1.1-0.36c0.46,0,0.81,0.12,1.06,0.36c0.25,0.24,0.38,0.61,0.38,1.12v15.01
				c0,1.01-0.47,1.51-1.4,1.51c-0.46,0-0.81-0.13-1.06-0.4s-0.38-0.64-0.38-1.12v-3.28l0.47,0.5c-0.48,1.42-1.27,2.5-2.36,3.24
				C793.96,420.93,792.69,421.3,791.25,421.3z"/>
			<path d="M828.62,427.71c-0.48,0-0.85-0.13-1.1-0.38s-0.38-0.62-0.38-1.1v-9.36h0.4c-0.38,1.34-1.14,2.42-2.27,3.22
				c-1.13,0.8-2.48,1.21-4.07,1.21c-1.56,0-2.92-0.37-4.09-1.12c-1.16-0.74-2.06-1.79-2.7-3.15c-0.64-1.36-0.95-2.96-0.95-4.81
				c0-1.87,0.32-3.49,0.95-4.84c0.64-1.36,1.54-2.4,2.7-3.13c1.16-0.73,2.53-1.1,4.09-1.1c1.58,0,2.95,0.4,4.09,1.21
				c1.14,0.8,1.9,1.89,2.29,3.26l-0.4,0.5v-3.42c0-0.48,0.13-0.85,0.38-1.1s0.61-0.38,1.06-0.38c0.48,0,0.84,0.13,1.08,0.38
				s0.36,0.62,0.36,1.1v21.53c0,0.48-0.13,0.85-0.38,1.1S829.07,427.71,828.62,427.71z M821.81,418.96c1.08,0,2.03-0.26,2.84-0.79
				c0.82-0.53,1.45-1.3,1.89-2.3c0.44-1.01,0.67-2.22,0.67-3.64c0-2.18-0.49-3.85-1.46-5c-0.97-1.15-2.29-1.73-3.94-1.73
				c-1.1,0-2.06,0.26-2.86,0.77c-0.8,0.52-1.43,1.27-1.87,2.27c-0.44,1-0.67,2.23-0.67,3.69c0,2.16,0.49,3.82,1.48,4.99
				C818.87,418.38,820.18,418.96,821.81,418.96z"/>
			<path d="M841.72,421.3c-1.42,0-2.59-0.26-3.51-0.77c-0.92-0.52-1.62-1.29-2.09-2.32s-0.7-2.32-0.7-3.85v-9.65
				c0-0.5,0.13-0.88,0.38-1.12c0.25-0.24,0.61-0.36,1.06-0.36c0.48,0,0.85,0.12,1.1,0.36c0.25,0.24,0.38,0.61,0.38,1.12v9.61
				c0,1.54,0.32,2.68,0.95,3.44c0.64,0.76,1.64,1.13,3.01,1.13c1.49,0,2.7-0.5,3.64-1.51c0.94-1.01,1.4-2.33,1.4-3.96v-8.71
				c0-0.5,0.13-0.88,0.38-1.12c0.25-0.24,0.62-0.36,1.1-0.36c0.46,0,0.81,0.12,1.06,0.36c0.25,0.24,0.38,0.61,0.38,1.12v15.01
				c0,1.01-0.47,1.51-1.4,1.51c-0.46,0-0.81-0.13-1.06-0.4s-0.38-0.64-0.38-1.12v-3.28l0.47,0.5c-0.48,1.42-1.27,2.5-2.36,3.24
				C844.43,420.93,843.16,421.3,841.72,421.3z"/>
			<path d="M863.61,421.3c-1.85,0-3.44-0.37-4.77-1.1s-2.36-1.77-3.1-3.11c-0.73-1.34-1.1-2.95-1.1-4.82c0-1.82,0.36-3.41,1.08-4.77
				c0.72-1.36,1.71-2.42,2.97-3.19c1.26-0.77,2.72-1.15,4.37-1.15c1.18,0,2.23,0.2,3.17,0.59c0.94,0.4,1.73,0.97,2.39,1.71
				c0.66,0.74,1.16,1.64,1.51,2.7c0.35,1.06,0.52,2.24,0.52,3.56c0,0.38-0.11,0.67-0.32,0.85c-0.22,0.18-0.53,0.27-0.94,0.27h-12.53
				v-1.91h11.84l-0.58,0.47c0-1.3-0.19-2.39-0.58-3.29c-0.38-0.9-0.94-1.59-1.67-2.07c-0.73-0.48-1.65-0.72-2.75-0.72
				c-1.22,0-2.26,0.28-3.11,0.85c-0.85,0.56-1.49,1.34-1.93,2.34c-0.43,1-0.65,2.15-0.65,3.47v0.22c0,2.21,0.53,3.89,1.6,5.04
				c1.07,1.15,2.58,1.73,4.55,1.73c0.82,0,1.63-0.11,2.43-0.32s1.59-0.58,2.36-1.08c0.34-0.22,0.64-0.32,0.92-0.31
				c0.28,0.01,0.5,0.1,0.67,0.25c0.17,0.16,0.28,0.35,0.34,0.58c0.06,0.23,0.04,0.47-0.07,0.74c-0.11,0.26-0.32,0.49-0.63,0.68
				c-0.79,0.58-1.73,1.02-2.81,1.33S864.66,421.3,863.61,421.3z"/>
			<path d="M880.78,421.3c-1.08,0-2.17-0.13-3.26-0.4c-1.09-0.26-2.11-0.72-3.04-1.37c-0.24-0.17-0.41-0.37-0.5-0.59
				c-0.1-0.23-0.13-0.46-0.09-0.68c0.04-0.23,0.13-0.43,0.29-0.59c0.16-0.17,0.35-0.27,0.58-0.31c0.23-0.04,0.49,0.02,0.77,0.16
				c0.94,0.58,1.84,0.98,2.72,1.21c0.88,0.23,1.75,0.34,2.61,0.34c1.37,0,2.4-0.25,3.1-0.76s1.04-1.19,1.04-2.05
				c0-0.67-0.23-1.21-0.68-1.6c-0.46-0.4-1.18-0.7-2.16-0.92l-3.28-0.72c-1.51-0.31-2.63-0.85-3.37-1.62
				c-0.73-0.77-1.1-1.76-1.1-2.99c0-1.08,0.28-2.01,0.85-2.79c0.56-0.78,1.36-1.39,2.39-1.82c1.03-0.43,2.23-0.65,3.6-0.65
				c1.06,0,2.06,0.14,3.01,0.41c0.95,0.28,1.81,0.71,2.57,1.31c0.24,0.17,0.4,0.37,0.49,0.59c0.08,0.23,0.1,0.46,0.04,0.68
				c-0.06,0.23-0.17,0.42-0.34,0.58c-0.17,0.16-0.37,0.25-0.61,0.27c-0.24,0.02-0.49-0.05-0.76-0.22c-0.72-0.48-1.45-0.83-2.2-1.06
				c-0.74-0.23-1.48-0.34-2.2-0.34c-1.34,0-2.36,0.26-3.06,0.79c-0.7,0.53-1.04,1.22-1.04,2.09c0,0.67,0.22,1.22,0.65,1.66
				c0.43,0.43,1.1,0.74,2.02,0.94l3.28,0.68c1.56,0.34,2.73,0.87,3.51,1.6c0.78,0.73,1.17,1.72,1.17,2.97
				c0,1.58-0.64,2.84-1.91,3.78C884.58,420.83,882.89,421.3,880.78,421.3z"/>
			<path d="M899.21,421.3c-1.37,0-2.51-0.25-3.44-0.74c-0.92-0.49-1.61-1.21-2.07-2.16c-0.46-0.95-0.68-2.11-0.68-3.47v-9.18h-2.41
				c-0.41,0-0.72-0.1-0.94-0.31c-0.22-0.2-0.32-0.49-0.32-0.85c0-0.36,0.11-0.64,0.32-0.83c0.22-0.19,0.53-0.29,0.94-0.29h2.41
				v-4.14c0-0.48,0.13-0.85,0.4-1.1c0.26-0.25,0.62-0.38,1.08-0.38s0.81,0.13,1.06,0.38s0.38,0.62,0.38,1.1v4.14h4.54
				c0.41,0,0.72,0.1,0.94,0.29c0.22,0.19,0.32,0.47,0.32,0.83c0,0.36-0.11,0.64-0.32,0.85c-0.22,0.2-0.53,0.31-0.94,0.31h-4.54v8.89
				c0,1.37,0.29,2.41,0.86,3.11s1.51,1.06,2.81,1.06c0.46,0,0.85-0.05,1.17-0.14s0.59-0.14,0.81-0.14c0.22-0.02,0.4,0.05,0.54,0.22
				c0.14,0.17,0.22,0.46,0.22,0.86c0,0.29-0.05,0.55-0.16,0.79c-0.11,0.24-0.29,0.41-0.56,0.5c-0.29,0.09-0.67,0.19-1.13,0.27
				S899.59,421.3,899.21,421.3z"/>
			<path d="M912.06,421.3c-1.7,0-3.18-0.37-4.43-1.12c-1.25-0.74-2.21-1.79-2.9-3.15c-0.68-1.36-1.03-2.96-1.03-4.81
				c0-1.39,0.19-2.65,0.58-3.76c0.38-1.12,0.95-2.07,1.69-2.86s1.63-1.4,2.65-1.82c1.02-0.42,2.17-0.63,3.44-0.63
				c1.7,0,3.18,0.37,4.43,1.12c1.25,0.74,2.21,1.79,2.9,3.15c0.68,1.36,1.03,2.96,1.03,4.81c0,1.39-0.19,2.64-0.58,3.74
				c-0.38,1.1-0.95,2.06-1.69,2.86c-0.74,0.8-1.63,1.42-2.65,1.84C914.48,421.09,913.33,421.3,912.06,421.3z M912.06,418.96
				c1.08,0,2.03-0.26,2.84-0.79c0.82-0.53,1.45-1.3,1.89-2.3c0.44-1.01,0.67-2.22,0.67-3.64c0-2.18-0.49-3.85-1.46-5
				c-0.97-1.15-2.29-1.73-3.94-1.73c-1.1,0-2.06,0.26-2.86,0.77c-0.8,0.52-1.43,1.27-1.87,2.27c-0.44,1-0.67,2.23-0.67,3.69
				c0,2.16,0.49,3.82,1.48,4.99C909.12,418.38,910.43,418.96,912.06,418.96z"/>
			<path d="M940,421.3c-1.08,0-2.17-0.13-3.26-0.4c-1.09-0.26-2.11-0.72-3.04-1.37c-0.24-0.17-0.41-0.37-0.5-0.59
				c-0.1-0.23-0.13-0.46-0.09-0.68c0.04-0.23,0.13-0.43,0.29-0.59c0.16-0.17,0.35-0.27,0.58-0.31c0.23-0.04,0.49,0.02,0.77,0.16
				c0.94,0.58,1.84,0.98,2.72,1.21c0.88,0.23,1.75,0.34,2.61,0.34c1.37,0,2.4-0.25,3.1-0.76s1.04-1.19,1.04-2.05
				c0-0.67-0.23-1.21-0.68-1.6c-0.46-0.4-1.18-0.7-2.16-0.92l-3.28-0.72c-1.51-0.31-2.63-0.85-3.37-1.62
				c-0.73-0.77-1.1-1.76-1.1-2.99c0-1.08,0.28-2.01,0.85-2.79c0.56-0.78,1.36-1.39,2.39-1.82c1.03-0.43,2.23-0.65,3.6-0.65
				c1.06,0,2.06,0.14,3.01,0.41c0.95,0.28,1.81,0.71,2.57,1.31c0.24,0.17,0.4,0.37,0.49,0.59c0.08,0.23,0.1,0.46,0.04,0.68
				c-0.06,0.23-0.17,0.42-0.34,0.58c-0.17,0.16-0.37,0.25-0.61,0.27c-0.24,0.02-0.49-0.05-0.76-0.22c-0.72-0.48-1.45-0.83-2.2-1.06
				c-0.74-0.23-1.48-0.34-2.2-0.34c-1.34,0-2.36,0.26-3.06,0.79c-0.7,0.53-1.04,1.22-1.04,2.09c0,0.67,0.22,1.22,0.65,1.66
				c0.43,0.43,1.1,0.74,2.02,0.94l3.28,0.68c1.56,0.34,2.73,0.87,3.51,1.6c0.78,0.73,1.17,1.72,1.17,2.97
				c0,1.58-0.64,2.84-1.91,3.78C943.8,420.83,942.11,421.3,940,421.3z"/>
			<path d="M952.85,399.27c-0.6,0-1.07-0.16-1.4-0.49c-0.34-0.32-0.5-0.76-0.5-1.31c0-0.58,0.17-1.01,0.5-1.31
				c0.33-0.3,0.8-0.45,1.4-0.45c0.62,0,1.1,0.15,1.42,0.45c0.32,0.3,0.49,0.74,0.49,1.31c0,0.55-0.16,0.99-0.49,1.31
				C953.95,399.1,953.47,399.27,952.85,399.27z M952.85,421.16c-0.48,0-0.84-0.14-1.08-0.41c-0.24-0.28-0.36-0.67-0.36-1.17v-14.72
				c0-0.5,0.12-0.89,0.36-1.15s0.6-0.4,1.08-0.4c0.46,0,0.82,0.13,1.08,0.4c0.26,0.26,0.4,0.65,0.4,1.15v14.72
				c0,0.5-0.13,0.89-0.38,1.17C953.7,421.02,953.33,421.16,952.85,421.16z"/>
			<path d="M966.78,421.3c-1.37,0-2.51-0.25-3.44-0.74c-0.92-0.49-1.61-1.21-2.07-2.16c-0.46-0.95-0.68-2.11-0.68-3.47v-9.18h-2.41
				c-0.41,0-0.72-0.1-0.94-0.31c-0.22-0.2-0.32-0.49-0.32-0.85c0-0.36,0.11-0.64,0.32-0.83c0.22-0.19,0.53-0.29,0.94-0.29h2.41
				v-4.14c0-0.48,0.13-0.85,0.4-1.1c0.26-0.25,0.62-0.38,1.08-0.38s0.81,0.13,1.06,0.38s0.38,0.62,0.38,1.1v4.14h4.54
				c0.41,0,0.72,0.1,0.94,0.29c0.22,0.19,0.32,0.47,0.32,0.83c0,0.36-0.11,0.64-0.32,0.85c-0.22,0.2-0.53,0.31-0.94,0.31h-4.54v8.89
				c0,1.37,0.29,2.41,0.86,3.11s1.51,1.06,2.81,1.06c0.46,0,0.85-0.05,1.17-0.14s0.59-0.14,0.81-0.14c0.22-0.02,0.4,0.05,0.54,0.22
				c0.14,0.17,0.22,0.46,0.22,0.86c0,0.29-0.05,0.55-0.16,0.79c-0.11,0.24-0.29,0.41-0.56,0.5c-0.29,0.09-0.67,0.19-1.13,0.27
				S967.17,421.3,966.78,421.3z"/>
			<path d="M979.63,421.3c-1.7,0-3.18-0.37-4.43-1.12c-1.25-0.74-2.21-1.79-2.9-3.15c-0.68-1.36-1.03-2.96-1.03-4.81
				c0-1.39,0.19-2.65,0.58-3.76c0.38-1.12,0.95-2.07,1.69-2.86s1.63-1.4,2.65-1.82c1.02-0.42,2.17-0.63,3.44-0.63
				c1.7,0,3.18,0.37,4.43,1.12c1.25,0.74,2.21,1.79,2.9,3.15c0.68,1.36,1.03,2.96,1.03,4.81c0,1.39-0.19,2.64-0.58,3.74
				c-0.38,1.1-0.95,2.06-1.69,2.86c-0.74,0.8-1.63,1.42-2.65,1.84C982.05,421.09,980.91,421.3,979.63,421.3z M979.63,418.96
				c1.08,0,2.03-0.26,2.84-0.79c0.82-0.53,1.45-1.3,1.89-2.3c0.44-1.01,0.67-2.22,0.67-3.64c0-2.18-0.49-3.85-1.46-5
				c-0.97-1.15-2.29-1.73-3.94-1.73c-1.1,0-2.06,0.26-2.86,0.77c-0.8,0.52-1.43,1.27-1.87,2.27c-0.44,1-0.67,2.23-0.67,3.69
				c0,2.16,0.49,3.82,1.48,4.99C976.69,418.38,978,418.96,979.63,418.96z"/>
			<path d="M1003.1,427.71c-0.48,0-0.84-0.13-1.08-0.38s-0.36-0.62-0.36-1.1V404.7c0-0.48,0.12-0.85,0.36-1.1s0.59-0.38,1.04-0.38
				c0.48,0,0.85,0.13,1.1,0.38s0.38,0.62,0.38,1.1v3.42l-0.4-0.5c0.38-1.37,1.15-2.45,2.29-3.26s2.5-1.21,4.09-1.21
				c1.56,0,2.92,0.37,4.09,1.1c1.16,0.73,2.06,1.78,2.7,3.13c0.64,1.36,0.95,2.97,0.95,4.84c0,1.85-0.32,3.45-0.95,4.81
				c-0.64,1.36-1.53,2.41-2.68,3.15c-1.15,0.74-2.52,1.12-4.1,1.12s-2.94-0.4-4.07-1.21c-1.13-0.8-1.9-1.88-2.3-3.22h0.43v9.36
				c0,0.48-0.13,0.85-0.4,1.1C1003.92,427.58,1003.56,427.71,1003.1,427.71z M1009.91,418.96c1.1,0,2.06-0.26,2.86-0.79
				c0.8-0.53,1.43-1.3,1.87-2.3c0.44-1.01,0.67-2.22,0.67-3.64c0-2.18-0.49-3.85-1.46-5c-0.97-1.15-2.29-1.73-3.94-1.73
				c-1.08,0-2.03,0.26-2.84,0.77c-0.82,0.52-1.45,1.27-1.89,2.27c-0.44,1-0.67,2.23-0.67,3.69c0,2.16,0.49,3.82,1.48,4.99
				S1008.28,418.96,1009.91,418.96z"/>
			<path d="M1029.92,421.3c-1.7,0-3.18-0.37-4.43-1.12c-1.25-0.74-2.21-1.79-2.9-3.15c-0.68-1.36-1.03-2.96-1.03-4.81
				c0-1.39,0.19-2.65,0.58-3.76c0.38-1.12,0.95-2.07,1.69-2.86s1.63-1.4,2.65-1.82c1.02-0.42,2.17-0.63,3.44-0.63
				c1.7,0,3.18,0.37,4.43,1.12c1.25,0.74,2.21,1.79,2.9,3.15c0.68,1.36,1.03,2.96,1.03,4.81c0,1.39-0.19,2.64-0.58,3.74
				c-0.38,1.1-0.95,2.06-1.69,2.86c-0.74,0.8-1.63,1.42-2.65,1.84C1032.34,421.09,1031.2,421.3,1029.92,421.3z M1029.92,418.96
				c1.08,0,2.03-0.26,2.84-0.79c0.82-0.53,1.45-1.3,1.89-2.3c0.44-1.01,0.67-2.22,0.67-3.64c0-2.18-0.49-3.85-1.46-5
				c-0.97-1.15-2.29-1.73-3.94-1.73c-1.1,0-2.06,0.26-2.86,0.77c-0.8,0.52-1.43,1.27-1.87,2.27c-0.44,1-0.67,2.23-0.67,3.69
				c0,2.16,0.49,3.82,1.48,4.99C1026.98,418.38,1028.29,418.96,1029.92,418.96z"/>
			<path d="M1044.14,421.23c-0.48,0-0.85-0.13-1.1-0.4s-0.38-0.64-0.38-1.12V404.7c0-0.48,0.12-0.85,0.36-1.1s0.59-0.38,1.04-0.38
				s0.81,0.13,1.06,0.38s0.38,0.62,0.38,1.1v2.92h-0.36c0.38-1.42,1.12-2.51,2.2-3.28s2.41-1.18,4-1.22
				c0.36-0.02,0.65,0.05,0.86,0.23c0.22,0.18,0.33,0.49,0.36,0.92c0.02,0.41-0.07,0.73-0.29,0.97c-0.22,0.24-0.55,0.38-1.01,0.43
				l-0.58,0.07c-1.63,0.14-2.89,0.67-3.76,1.57c-0.88,0.9-1.31,2.13-1.31,3.69v8.71c0,0.48-0.13,0.85-0.38,1.12
				S1044.62,421.23,1044.14,421.23z"/>
			<path d="M1062.58,421.3c-1.37,0-2.51-0.25-3.44-0.74c-0.92-0.49-1.61-1.21-2.07-2.16c-0.46-0.95-0.68-2.11-0.68-3.47v-9.18h-2.41
				c-0.41,0-0.72-0.1-0.94-0.31c-0.22-0.2-0.32-0.49-0.32-0.85c0-0.36,0.11-0.64,0.32-0.83c0.22-0.19,0.53-0.29,0.94-0.29h2.41
				v-4.14c0-0.48,0.13-0.85,0.4-1.1c0.26-0.25,0.62-0.38,1.08-0.38s0.81,0.13,1.06,0.38s0.38,0.62,0.38,1.1v4.14h4.54
				c0.41,0,0.72,0.1,0.94,0.29c0.22,0.19,0.32,0.47,0.32,0.83c0,0.36-0.11,0.64-0.32,0.85c-0.22,0.2-0.53,0.31-0.94,0.31h-4.54v8.89
				c0,1.37,0.29,2.41,0.86,3.11s1.51,1.06,2.81,1.06c0.46,0,0.85-0.05,1.17-0.14s0.59-0.14,0.81-0.14c0.22-0.02,0.4,0.05,0.54,0.22
				c0.14,0.17,0.22,0.46,0.22,0.86c0,0.29-0.05,0.55-0.16,0.79c-0.11,0.24-0.29,0.41-0.56,0.5c-0.29,0.09-0.67,0.19-1.13,0.27
				S1062.96,421.3,1062.58,421.3z"/>
			<path d="M1070.53,421.23c-0.46,0-0.81-0.13-1.06-0.4s-0.38-0.64-0.38-1.12v-13.97h-2.3c-0.38,0-0.69-0.1-0.92-0.31
				c-0.23-0.2-0.34-0.49-0.34-0.85c0-0.36,0.11-0.64,0.34-0.83c0.23-0.19,0.53-0.29,0.92-0.29h3.1l-0.79,0.76v-1.37
				c0-2.28,0.56-4.02,1.67-5.22c1.12-1.2,2.75-1.9,4.91-2.09l1.04-0.11c0.34-0.02,0.61,0.04,0.81,0.18c0.2,0.14,0.34,0.32,0.4,0.54
				c0.06,0.22,0.07,0.44,0.02,0.67c-0.05,0.23-0.16,0.43-0.32,0.59c-0.17,0.17-0.37,0.26-0.61,0.29l-0.83,0.07
				c-1.46,0.12-2.53,0.56-3.19,1.33c-0.66,0.77-0.99,1.9-0.99,3.38v1.51l-0.43-0.54h4.32c0.41,0,0.72,0.1,0.94,0.29
				c0.22,0.19,0.32,0.47,0.32,0.83c0,0.36-0.11,0.64-0.32,0.85c-0.22,0.2-0.53,0.31-0.94,0.31h-3.89v13.97
				C1072.01,420.72,1071.51,421.23,1070.53,421.23z"/>
			<path d="M1087.41,421.3c-1.7,0-3.18-0.37-4.43-1.12c-1.25-0.74-2.21-1.79-2.9-3.15c-0.68-1.36-1.03-2.96-1.03-4.81
				c0-1.39,0.19-2.65,0.58-3.76c0.38-1.12,0.95-2.07,1.69-2.86s1.63-1.4,2.65-1.82c1.02-0.42,2.17-0.63,3.44-0.63
				c1.7,0,3.18,0.37,4.43,1.12c1.25,0.74,2.21,1.79,2.9,3.15c0.68,1.36,1.03,2.96,1.03,4.81c0,1.39-0.19,2.64-0.58,3.74
				c-0.38,1.1-0.95,2.06-1.69,2.86c-0.74,0.8-1.63,1.42-2.65,1.84C1089.83,421.09,1088.69,421.3,1087.41,421.3z M1087.41,418.96
				c1.08,0,2.03-0.26,2.84-0.79c0.82-0.53,1.45-1.3,1.89-2.3c0.44-1.01,0.67-2.22,0.67-3.64c0-2.18-0.49-3.85-1.46-5
				c-0.97-1.15-2.29-1.73-3.94-1.73c-1.1,0-2.06,0.26-2.86,0.77c-0.8,0.52-1.43,1.27-1.87,2.27c-0.44,1-0.67,2.23-0.67,3.69
				c0,2.16,0.49,3.82,1.48,4.99C1084.47,418.38,1085.78,418.96,1087.41,418.96z"/>
			<path d="M1105.49,421.3c-1.73,0-3.05-0.53-3.96-1.58c-0.91-1.06-1.37-2.57-1.37-4.54v-18.36c0-0.48,0.12-0.85,0.36-1.1
				s0.6-0.38,1.08-0.38c0.46,0,0.82,0.13,1.08,0.38c0.26,0.25,0.4,0.62,0.4,1.1v18.14c0,1.3,0.26,2.26,0.77,2.9
				c0.52,0.64,1.28,0.95,2.29,0.95c0.22,0,0.41-0.01,0.58-0.04c0.17-0.02,0.34-0.04,0.5-0.04c0.26-0.02,0.45,0.04,0.56,0.18
				c0.11,0.14,0.16,0.43,0.16,0.86c0,0.43-0.1,0.76-0.29,0.97s-0.5,0.36-0.94,0.43c-0.19,0.02-0.4,0.05-0.61,0.07
				C1105.88,421.29,1105.68,421.3,1105.49,421.3z"/>
			<path d="M1112.25,399.27c-0.6,0-1.07-0.16-1.4-0.49c-0.34-0.32-0.5-0.76-0.5-1.31c0-0.58,0.17-1.01,0.5-1.31
				c0.33-0.3,0.8-0.45,1.4-0.45c0.62,0,1.1,0.15,1.42,0.45c0.32,0.3,0.49,0.74,0.49,1.31c0,0.55-0.16,0.99-0.49,1.31
				C1113.35,399.1,1112.88,399.27,1112.25,399.27z M1112.25,421.16c-0.48,0-0.84-0.14-1.08-0.41c-0.24-0.28-0.36-0.67-0.36-1.17
				v-14.72c0-0.5,0.12-0.89,0.36-1.15s0.6-0.4,1.08-0.4c0.46,0,0.82,0.13,1.08,0.4c0.26,0.26,0.4,0.65,0.4,1.15v14.72
				c0,0.5-0.13,0.89-0.38,1.17C1113.1,421.02,1112.73,421.16,1112.25,421.16z"/>
			<path d="M1126.44,421.3c-1.7,0-3.18-0.37-4.43-1.12c-1.25-0.74-2.21-1.79-2.9-3.15c-0.68-1.36-1.03-2.96-1.03-4.81
				c0-1.39,0.19-2.65,0.58-3.76c0.38-1.12,0.95-2.07,1.69-2.86s1.63-1.4,2.65-1.82c1.02-0.42,2.17-0.63,3.44-0.63
				c1.7,0,3.18,0.37,4.43,1.12c1.25,0.74,2.21,1.79,2.9,3.15c0.68,1.36,1.03,2.96,1.03,4.81c0,1.39-0.19,2.64-0.58,3.74
				c-0.38,1.1-0.95,2.06-1.69,2.86c-0.74,0.8-1.63,1.42-2.65,1.84C1128.85,421.09,1127.71,421.3,1126.44,421.3z M1126.44,418.96
				c1.08,0,2.03-0.26,2.84-0.79c0.82-0.53,1.45-1.3,1.89-2.3c0.44-1.01,0.67-2.22,0.67-3.64c0-2.18-0.49-3.85-1.46-5
				c-0.97-1.15-2.29-1.73-3.94-1.73c-1.1,0-2.06,0.26-2.86,0.77c-0.8,0.52-1.43,1.27-1.87,2.27c-0.44,1-0.67,2.23-0.67,3.69
				c0,2.16,0.49,3.82,1.48,4.99C1123.5,418.38,1124.8,418.96,1126.44,418.96z"/>
			<path d="M1149.91,427.71c-0.48,0-0.84-0.13-1.08-0.38s-0.36-0.62-0.36-1.1V404.7c0-0.48,0.12-0.85,0.36-1.1s0.59-0.38,1.04-0.38
				c0.48,0,0.85,0.13,1.1,0.38s0.38,0.62,0.38,1.1v3.42l-0.4-0.5c0.38-1.37,1.15-2.45,2.29-3.26s2.5-1.21,4.09-1.21
				c1.56,0,2.92,0.37,4.09,1.1c1.16,0.73,2.06,1.78,2.7,3.13c0.64,1.36,0.95,2.97,0.95,4.84c0,1.85-0.32,3.45-0.95,4.81
				c-0.64,1.36-1.53,2.41-2.68,3.15c-1.15,0.74-2.52,1.12-4.1,1.12s-2.94-0.4-4.07-1.21c-1.13-0.8-1.9-1.88-2.3-3.22h0.43v9.36
				c0,0.48-0.13,0.85-0.4,1.1C1150.72,427.58,1150.36,427.71,1149.91,427.71z M1156.71,418.96c1.1,0,2.06-0.26,2.86-0.79
				c0.8-0.53,1.43-1.3,1.87-2.3c0.44-1.01,0.67-2.22,0.67-3.64c0-2.18-0.49-3.85-1.46-5c-0.97-1.15-2.29-1.73-3.94-1.73
				c-1.08,0-2.03,0.26-2.84,0.77c-0.82,0.52-1.45,1.27-1.89,2.27c-0.44,1-0.67,2.23-0.67,3.69c0,2.16,0.49,3.82,1.48,4.99
				S1155.08,418.96,1156.71,418.96z"/>
			<path d="M1175.65,421.3c-1.42,0-2.59-0.26-3.51-0.77c-0.92-0.52-1.62-1.29-2.09-2.32s-0.7-2.32-0.7-3.85v-9.65
				c0-0.5,0.13-0.88,0.38-1.12c0.25-0.24,0.61-0.36,1.06-0.36c0.48,0,0.85,0.12,1.1,0.36c0.25,0.24,0.38,0.61,0.38,1.12v9.61
				c0,1.54,0.32,2.68,0.95,3.44c0.64,0.76,1.64,1.13,3.01,1.13c1.49,0,2.7-0.5,3.64-1.51c0.94-1.01,1.4-2.33,1.4-3.96v-8.71
				c0-0.5,0.13-0.88,0.38-1.12c0.25-0.24,0.62-0.36,1.1-0.36c0.46,0,0.81,0.12,1.06,0.36c0.25,0.24,0.38,0.61,0.38,1.12v15.01
				c0,1.01-0.47,1.51-1.4,1.51c-0.46,0-0.81-0.13-1.06-0.4s-0.38-0.64-0.38-1.12v-3.28l0.47,0.5c-0.48,1.42-1.27,2.5-2.36,3.24
				C1178.35,420.93,1177.09,421.3,1175.65,421.3z"/>
			<path d="M1196.92,421.3c-1.7,0-3.18-0.37-4.43-1.12c-1.25-0.74-2.21-1.79-2.9-3.15c-0.68-1.36-1.03-2.96-1.03-4.81
				c0-1.39,0.19-2.65,0.58-3.76c0.38-1.12,0.95-2.07,1.69-2.86s1.63-1.4,2.65-1.82c1.02-0.42,2.17-0.63,3.44-0.63
				c1.7,0,3.18,0.37,4.43,1.12c1.25,0.74,2.21,1.79,2.9,3.15c0.68,1.36,1.03,2.96,1.03,4.81c0,1.39-0.19,2.64-0.58,3.74
				c-0.38,1.1-0.95,2.06-1.69,2.86c-0.74,0.8-1.63,1.42-2.65,1.84C1199.34,421.09,1198.2,421.3,1196.92,421.3z M1196.92,418.96
				c1.08,0,2.03-0.26,2.84-0.79c0.82-0.53,1.45-1.3,1.89-2.3c0.44-1.01,0.67-2.22,0.67-3.64c0-2.18-0.49-3.85-1.46-5
				c-0.97-1.15-2.29-1.73-3.94-1.73c-1.1,0-2.06,0.26-2.86,0.77c-0.8,0.52-1.43,1.27-1.87,2.27c-0.44,1-0.67,2.23-0.67,3.69
				c0,2.16,0.49,3.82,1.48,4.99C1193.98,418.38,1195.29,418.96,1196.92,418.96z"/>
			<path d="M1211.11,399.27c-0.6,0-1.07-0.16-1.4-0.49c-0.34-0.32-0.5-0.76-0.5-1.31c0-0.58,0.17-1.01,0.5-1.31
				c0.33-0.3,0.8-0.45,1.4-0.45c0.62,0,1.1,0.15,1.42,0.45c0.32,0.3,0.49,0.74,0.49,1.31c0,0.55-0.16,0.99-0.49,1.31
				C1212.21,399.1,1211.73,399.27,1211.11,399.27z M1211.11,421.16c-0.48,0-0.84-0.14-1.08-0.41c-0.24-0.28-0.36-0.67-0.36-1.17
				v-14.72c0-0.5,0.12-0.89,0.36-1.15s0.6-0.4,1.08-0.4c0.46,0,0.82,0.13,1.08,0.4c0.26,0.26,0.4,0.65,0.4,1.15v14.72
				c0,0.5-0.13,0.89-0.38,1.17C1211.95,421.02,1211.59,421.16,1211.11,421.16z"/>
			<path d="M769.94,464.5c-1.37,0-2.51-0.25-3.44-0.74c-0.92-0.49-1.61-1.21-2.07-2.16s-0.68-2.11-0.68-3.47v-9.18h-2.41
				c-0.41,0-0.72-0.1-0.94-0.31s-0.32-0.49-0.32-0.85c0-0.36,0.11-0.64,0.32-0.83s0.53-0.29,0.94-0.29h2.41v-4.14
				c0-0.48,0.13-0.85,0.4-1.1c0.26-0.25,0.62-0.38,1.08-0.38s0.81,0.13,1.06,0.38s0.38,0.62,0.38,1.1v4.14h4.54
				c0.41,0,0.72,0.1,0.94,0.29s0.32,0.47,0.32,0.83c0,0.36-0.11,0.64-0.32,0.85s-0.53,0.31-0.94,0.31h-4.54v8.89
				c0,1.37,0.29,2.41,0.86,3.11c0.58,0.71,1.51,1.06,2.81,1.06c0.46,0,0.85-0.05,1.17-0.14c0.32-0.09,0.59-0.14,0.81-0.14
				c0.22-0.02,0.4,0.05,0.54,0.22c0.14,0.17,0.22,0.46,0.22,0.86c0,0.29-0.05,0.55-0.16,0.79c-0.11,0.24-0.29,0.41-0.56,0.5
				c-0.29,0.1-0.67,0.19-1.13,0.27C770.75,464.46,770.32,464.5,769.94,464.5z"/>
			<path d="M776.99,464.43c-0.48,0-0.85-0.13-1.1-0.4s-0.38-0.64-0.38-1.12V447.9c0-0.48,0.12-0.85,0.36-1.1s0.59-0.38,1.04-0.38
				s0.81,0.13,1.06,0.38s0.38,0.62,0.38,1.1v2.92H778c0.38-1.42,1.12-2.51,2.2-3.28c1.08-0.77,2.41-1.18,4-1.22
				c0.36-0.02,0.65,0.05,0.86,0.23c0.22,0.18,0.33,0.49,0.36,0.92c0.02,0.41-0.07,0.73-0.29,0.97c-0.22,0.24-0.55,0.38-1.01,0.43
				l-0.58,0.07c-1.63,0.14-2.89,0.67-3.76,1.57c-0.88,0.9-1.31,2.13-1.31,3.69v8.71c0,0.48-0.13,0.85-0.38,1.12
				S777.47,464.43,776.99,464.43z"/>
			<path d="M795.68,464.5c-1.7,0-3.18-0.37-4.43-1.12c-1.25-0.74-2.21-1.79-2.9-3.15c-0.68-1.36-1.03-2.96-1.03-4.81
				c0-1.39,0.19-2.65,0.58-3.76c0.38-1.12,0.95-2.07,1.69-2.86s1.63-1.4,2.65-1.82c1.02-0.42,2.17-0.63,3.44-0.63
				c1.7,0,3.18,0.37,4.43,1.12s2.21,1.79,2.9,3.15c0.68,1.36,1.03,2.96,1.03,4.81c0,1.39-0.19,2.64-0.58,3.74
				c-0.38,1.1-0.95,2.06-1.69,2.86c-0.74,0.8-1.63,1.42-2.65,1.84C798.09,464.29,796.95,464.5,795.68,464.5z M795.68,462.16
				c1.08,0,2.03-0.26,2.84-0.79c0.82-0.53,1.45-1.3,1.89-2.3c0.44-1.01,0.67-2.22,0.67-3.64c0-2.18-0.49-3.85-1.46-5
				c-0.97-1.15-2.29-1.73-3.94-1.73c-1.1,0-2.06,0.26-2.86,0.77c-0.8,0.52-1.43,1.27-1.87,2.27c-0.44,1-0.67,2.23-0.67,3.69
				c0,2.16,0.49,3.82,1.48,4.99C792.74,461.58,794.04,462.16,795.68,462.16z"/>
			<path d="M814.94,464.43c-0.41,0-0.77-0.11-1.08-0.34c-0.31-0.23-0.58-0.58-0.79-1.06l-6.23-14.54c-0.17-0.36-0.23-0.7-0.18-1.01
				c0.05-0.31,0.19-0.56,0.43-0.76c0.24-0.19,0.58-0.29,1.01-0.29c0.38,0,0.68,0.08,0.9,0.25c0.22,0.17,0.41,0.47,0.58,0.9
				l5.9,14.44h-0.97l6.01-14.44c0.17-0.43,0.36-0.73,0.58-0.9s0.53-0.25,0.94-0.25c0.38,0,0.68,0.1,0.88,0.29s0.32,0.44,0.36,0.74
				c0.04,0.3-0.02,0.63-0.16,0.99l-6.3,14.58c-0.17,0.48-0.41,0.83-0.74,1.06C815.75,464.31,815.37,464.43,814.94,464.43z"/>
			<path d="M832.47,464.5c-1.2,0-2.27-0.23-3.22-0.7c-0.95-0.47-1.7-1.11-2.25-1.93c-0.55-0.82-0.83-1.73-0.83-2.74
				c0-1.3,0.33-2.32,0.99-3.06c0.66-0.74,1.75-1.27,3.28-1.58c1.52-0.31,3.61-0.47,6.25-0.47h1.62v1.91h-1.58
				c-1.94,0-3.47,0.09-4.59,0.27c-1.12,0.18-1.9,0.49-2.34,0.92c-0.44,0.43-0.67,1.04-0.67,1.84c0,0.98,0.34,1.79,1.03,2.41
				c0.68,0.63,1.61,0.94,2.79,0.94c0.96,0,1.81-0.23,2.54-0.68c0.73-0.46,1.31-1.08,1.73-1.87s0.63-1.7,0.63-2.74v-4.1
				c0-1.49-0.3-2.56-0.9-3.22c-0.6-0.66-1.58-0.99-2.95-0.99c-0.84,0-1.68,0.11-2.52,0.32c-0.84,0.22-1.73,0.56-2.66,1.04
				c-0.34,0.17-0.63,0.22-0.86,0.16c-0.24-0.06-0.43-0.19-0.58-0.38c-0.14-0.19-0.23-0.41-0.25-0.67c-0.02-0.25,0.03-0.5,0.16-0.74
				c0.13-0.24,0.34-0.43,0.63-0.58c1.06-0.53,2.1-0.91,3.13-1.15s2.02-0.36,2.95-0.36c1.51,0,2.76,0.25,3.74,0.74
				c0.98,0.49,1.72,1.24,2.2,2.23c0.48,1,0.72,2.27,0.72,3.83v9.76c0,0.48-0.11,0.85-0.34,1.12c-0.23,0.26-0.56,0.4-0.99,0.4
				c-0.46,0-0.8-0.13-1.04-0.4c-0.24-0.26-0.36-0.64-0.36-1.12v-2.81h0.32c-0.19,0.91-0.56,1.69-1.1,2.34
				c-0.54,0.65-1.21,1.15-2,1.51C834.34,464.32,833.45,464.5,832.47,464.5z"/>
			<path d="M847.52,464.43c-0.48,0-0.85-0.13-1.1-0.4s-0.38-0.64-0.38-1.12V447.9c0-0.48,0.12-0.85,0.36-1.1s0.59-0.38,1.04-0.38
				s0.81,0.13,1.06,0.38s0.38,0.62,0.38,1.1v2.92h-0.36c0.38-1.42,1.12-2.51,2.2-3.28c1.08-0.77,2.41-1.18,4-1.22
				c0.36-0.02,0.65,0.05,0.86,0.23c0.22,0.18,0.33,0.49,0.36,0.92c0.02,0.41-0.07,0.73-0.29,0.97c-0.22,0.24-0.55,0.38-1.01,0.43
				l-0.58,0.07c-1.63,0.14-2.89,0.67-3.76,1.57c-0.88,0.9-1.31,2.13-1.31,3.69v8.71c0,0.48-0.13,0.85-0.38,1.12
				S848,464.43,847.52,464.43z"/>
			<path d="M866.81,464.5c-1.85,0-3.44-0.37-4.77-1.1c-1.33-0.73-2.36-1.77-3.1-3.11c-0.73-1.34-1.1-2.95-1.1-4.82
				c0-1.82,0.36-3.41,1.08-4.77c0.72-1.36,1.71-2.42,2.97-3.19s2.72-1.15,4.37-1.15c1.18,0,2.23,0.2,3.17,0.59
				c0.94,0.4,1.73,0.97,2.39,1.71c0.66,0.74,1.16,1.64,1.51,2.7c0.35,1.06,0.52,2.24,0.52,3.56c0,0.38-0.11,0.67-0.32,0.85
				c-0.22,0.18-0.53,0.27-0.94,0.27h-12.53v-1.91h11.84l-0.58,0.47c0-1.3-0.19-2.39-0.58-3.29c-0.38-0.9-0.94-1.59-1.67-2.07
				c-0.73-0.48-1.65-0.72-2.75-0.72c-1.22,0-2.26,0.28-3.11,0.85c-0.85,0.56-1.49,1.34-1.93,2.34c-0.43,1-0.65,2.15-0.65,3.47v0.22
				c0,2.21,0.53,3.89,1.6,5.04c1.07,1.15,2.58,1.73,4.55,1.73c0.82,0,1.63-0.11,2.43-0.32c0.8-0.22,1.59-0.58,2.36-1.08
				c0.34-0.22,0.64-0.32,0.92-0.31c0.28,0.01,0.5,0.1,0.67,0.25c0.17,0.16,0.28,0.35,0.34,0.58c0.06,0.23,0.04,0.47-0.07,0.74
				c-0.11,0.26-0.32,0.49-0.63,0.68c-0.79,0.58-1.73,1.02-2.81,1.33S867.87,464.5,866.81,464.5z"/>
			<path d="M888.81,442.47c-0.6,0-1.07-0.16-1.4-0.49c-0.34-0.32-0.5-0.76-0.5-1.31c0-0.58,0.17-1.01,0.5-1.31
				c0.33-0.3,0.8-0.45,1.4-0.45c0.62,0,1.1,0.15,1.42,0.45c0.32,0.3,0.49,0.74,0.49,1.31c0,0.55-0.16,0.99-0.49,1.31
				C889.91,442.3,889.43,442.47,888.81,442.47z M888.81,464.35c-0.48,0-0.84-0.14-1.08-0.41s-0.36-0.67-0.36-1.17v-14.72
				c0-0.5,0.12-0.89,0.36-1.15c0.24-0.26,0.6-0.4,1.08-0.4c0.46,0,0.82,0.13,1.08,0.4c0.26,0.26,0.4,0.65,0.4,1.15v14.72
				c0,0.5-0.13,0.89-0.38,1.17S889.29,464.35,888.81,464.35z"/>
			<path d="M906.52,464.43c-0.48,0-0.84-0.13-1.08-0.4c-0.24-0.26-0.36-0.64-0.36-1.12V447.9c0-0.48,0.12-0.85,0.36-1.1
				c0.24-0.25,0.59-0.38,1.04-0.38s0.81,0.13,1.06,0.38s0.38,0.62,0.38,1.1v3.17l-0.4-0.5c0.46-1.34,1.19-2.38,2.21-3.11
				c1.02-0.73,2.24-1.1,3.65-1.1c1.49,0,2.69,0.35,3.62,1.06c0.92,0.71,1.54,1.81,1.85,3.29h-0.54c0.43-1.34,1.21-2.41,2.32-3.19
				c1.12-0.78,2.42-1.17,3.91-1.17c1.32,0,2.41,0.25,3.26,0.76c0.85,0.5,1.49,1.27,1.93,2.29c0.43,1.02,0.65,2.31,0.65,3.87v9.65
				c0,0.48-0.13,0.85-0.38,1.12s-0.62,0.4-1.1,0.4c-0.46,0-0.81-0.13-1.06-0.4s-0.38-0.64-0.38-1.12v-9.5
				c0-1.61-0.28-2.79-0.83-3.55c-0.55-0.76-1.49-1.13-2.81-1.13c-1.44,0-2.57,0.5-3.4,1.49s-1.24,2.35-1.24,4.05v8.64
				c0,0.48-0.13,0.85-0.38,1.12s-0.62,0.4-1.1,0.4c-0.46,0-0.81-0.13-1.06-0.4s-0.38-0.64-0.38-1.12v-9.5
				c0-1.61-0.28-2.79-0.85-3.55c-0.56-0.76-1.49-1.13-2.79-1.13c-1.44,0-2.57,0.5-3.4,1.49s-1.24,2.35-1.24,4.05v8.64
				C908,463.92,907.5,464.43,906.52,464.43z"/>
			<path d="M937.26,442.47c-0.6,0-1.07-0.16-1.4-0.49c-0.34-0.32-0.5-0.76-0.5-1.31c0-0.58,0.17-1.01,0.5-1.31
				c0.33-0.3,0.8-0.45,1.4-0.45c0.62,0,1.1,0.15,1.42,0.45c0.32,0.3,0.49,0.74,0.49,1.31c0,0.55-0.16,0.99-0.49,1.31
				C938.36,442.3,937.89,442.47,937.26,442.47z M937.26,464.35c-0.48,0-0.84-0.14-1.08-0.41s-0.36-0.67-0.36-1.17v-14.72
				c0-0.5,0.12-0.89,0.36-1.15c0.24-0.26,0.6-0.4,1.08-0.4c0.46,0,0.82,0.13,1.08,0.4c0.26,0.26,0.4,0.65,0.4,1.15v14.72
				c0,0.5-0.13,0.89-0.38,1.17S937.74,464.35,937.26,464.35z"/>
			<path d="M952.06,464.5c-1.85,0-3.44-0.37-4.77-1.1c-1.33-0.73-2.36-1.77-3.1-3.11c-0.73-1.34-1.1-2.95-1.1-4.82
				c0-1.82,0.36-3.41,1.08-4.77c0.72-1.36,1.71-2.42,2.97-3.19s2.72-1.15,4.37-1.15c1.18,0,2.23,0.2,3.17,0.59
				c0.94,0.4,1.73,0.97,2.39,1.71c0.66,0.74,1.16,1.64,1.51,2.7c0.35,1.06,0.52,2.24,0.52,3.56c0,0.38-0.11,0.67-0.32,0.85
				c-0.22,0.18-0.53,0.27-0.94,0.27h-12.53v-1.91h11.84l-0.58,0.47c0-1.3-0.19-2.39-0.58-3.29c-0.38-0.9-0.94-1.59-1.67-2.07
				c-0.73-0.48-1.65-0.72-2.75-0.72c-1.22,0-2.26,0.28-3.11,0.85c-0.85,0.56-1.49,1.34-1.93,2.34c-0.43,1-0.65,2.15-0.65,3.47v0.22
				c0,2.21,0.53,3.89,1.6,5.04c1.07,1.15,2.58,1.73,4.55,1.73c0.82,0,1.63-0.11,2.43-0.32c0.8-0.22,1.59-0.58,2.36-1.08
				c0.34-0.22,0.64-0.32,0.92-0.31c0.28,0.01,0.5,0.1,0.67,0.25c0.17,0.16,0.28,0.35,0.34,0.58c0.06,0.23,0.04,0.47-0.07,0.74
				c-0.11,0.26-0.32,0.49-0.63,0.68c-0.79,0.58-1.73,1.02-2.81,1.33S953.12,464.5,952.06,464.5z"/>
			<path d="M964.77,442.47c-0.6,0-1.07-0.16-1.4-0.49c-0.34-0.32-0.5-0.76-0.5-1.31c0-0.58,0.17-1.01,0.5-1.31
				c0.33-0.3,0.8-0.45,1.4-0.45c0.62,0,1.1,0.15,1.42,0.45c0.32,0.3,0.49,0.74,0.49,1.31c0,0.55-0.16,0.99-0.49,1.31
				C965.87,442.3,965.39,442.47,964.77,442.47z M964.77,464.35c-0.48,0-0.84-0.14-1.08-0.41s-0.36-0.67-0.36-1.17v-14.72
				c0-0.5,0.12-0.89,0.36-1.15c0.24-0.26,0.6-0.4,1.08-0.4c0.46,0,0.82,0.13,1.08,0.4c0.26,0.26,0.4,0.65,0.4,1.15v14.72
				c0,0.5-0.13,0.89-0.38,1.17S965.25,464.35,964.77,464.35z"/>
			<path d="M986.3,464.5c-1.73,0-3.05-0.53-3.96-1.58c-0.91-1.06-1.37-2.57-1.37-4.54v-18.36c0-0.48,0.12-0.85,0.36-1.1
				s0.6-0.38,1.08-0.38c0.46,0,0.82,0.13,1.08,0.38c0.26,0.25,0.4,0.62,0.4,1.1v18.14c0,1.3,0.26,2.26,0.77,2.9
				c0.52,0.64,1.28,0.95,2.29,0.95c0.22,0,0.41-0.01,0.58-0.04c0.17-0.02,0.34-0.04,0.5-0.04c0.26-0.02,0.45,0.04,0.56,0.18
				c0.11,0.14,0.16,0.43,0.16,0.86c0,0.43-0.1,0.76-0.29,0.97c-0.19,0.22-0.5,0.36-0.94,0.43c-0.19,0.02-0.4,0.05-0.61,0.07
				C986.69,464.49,986.49,464.5,986.3,464.5z"/>
			<path d="M997.13,464.5c-1.2,0-2.27-0.23-3.22-0.7c-0.95-0.47-1.7-1.11-2.25-1.93c-0.55-0.82-0.83-1.73-0.83-2.74
				c0-1.3,0.33-2.32,0.99-3.06c0.66-0.74,1.75-1.27,3.28-1.58c1.52-0.31,3.61-0.47,6.25-0.47h1.62v1.91h-1.58
				c-1.94,0-3.47,0.09-4.59,0.27c-1.12,0.18-1.9,0.49-2.34,0.92c-0.44,0.43-0.67,1.04-0.67,1.84c0,0.98,0.34,1.79,1.03,2.41
				c0.68,0.63,1.61,0.94,2.79,0.94c0.96,0,1.81-0.23,2.54-0.68c0.73-0.46,1.31-1.08,1.73-1.87s0.63-1.7,0.63-2.74v-4.1
				c0-1.49-0.3-2.56-0.9-3.22c-0.6-0.66-1.58-0.99-2.95-0.99c-0.84,0-1.68,0.11-2.52,0.32c-0.84,0.22-1.73,0.56-2.66,1.04
				c-0.34,0.17-0.63,0.22-0.86,0.16c-0.24-0.06-0.43-0.19-0.58-0.38c-0.14-0.19-0.23-0.41-0.25-0.67c-0.02-0.25,0.03-0.5,0.16-0.74
				c0.13-0.24,0.34-0.43,0.63-0.58c1.06-0.53,2.1-0.91,3.13-1.15s2.02-0.36,2.95-0.36c1.51,0,2.76,0.25,3.74,0.74
				c0.98,0.49,1.72,1.24,2.2,2.23c0.48,1,0.72,2.27,0.72,3.83v9.76c0,0.48-0.11,0.85-0.34,1.12c-0.23,0.26-0.56,0.4-0.99,0.4
				c-0.46,0-0.8-0.13-1.04-0.4c-0.24-0.26-0.36-0.64-0.36-1.12v-2.81h0.32c-0.19,0.91-0.56,1.69-1.1,2.34
				c-0.54,0.65-1.21,1.15-2,1.51C999,464.32,998.11,464.5,997.13,464.5z"/>
			<path d="M1017.22,464.43c-0.41,0-0.77-0.11-1.08-0.34c-0.31-0.23-0.58-0.58-0.79-1.06l-6.23-14.54c-0.17-0.36-0.23-0.7-0.18-1.01
				c0.05-0.31,0.19-0.56,0.43-0.76c0.24-0.19,0.58-0.29,1.01-0.29c0.38,0,0.68,0.08,0.9,0.25c0.22,0.17,0.41,0.47,0.58,0.9
				l5.9,14.44h-0.97l6.01-14.44c0.17-0.43,0.36-0.73,0.58-0.9s0.53-0.25,0.94-0.25c0.38,0,0.68,0.1,0.88,0.29s0.32,0.44,0.36,0.74
				c0.04,0.3-0.02,0.63-0.16,0.99l-6.3,14.58c-0.17,0.48-0.41,0.83-0.74,1.06C1018.03,464.31,1017.65,464.43,1017.22,464.43z"/>
			<path d="M1036.51,464.5c-1.7,0-3.18-0.37-4.43-1.12c-1.25-0.74-2.21-1.79-2.9-3.15c-0.68-1.36-1.03-2.96-1.03-4.81
				c0-1.39,0.19-2.65,0.58-3.76c0.38-1.12,0.95-2.07,1.69-2.86s1.63-1.4,2.65-1.82c1.02-0.42,2.17-0.63,3.44-0.63
				c1.7,0,3.18,0.37,4.43,1.12s2.21,1.79,2.9,3.15c0.68,1.36,1.03,2.96,1.03,4.81c0,1.39-0.19,2.64-0.58,3.74
				c-0.38,1.1-0.95,2.06-1.69,2.86c-0.74,0.8-1.63,1.42-2.65,1.84C1038.93,464.29,1037.79,464.5,1036.51,464.5z M1036.51,462.16
				c1.08,0,2.03-0.26,2.84-0.79c0.82-0.53,1.45-1.3,1.89-2.3c0.44-1.01,0.67-2.22,0.67-3.64c0-2.18-0.49-3.85-1.46-5
				c-0.97-1.15-2.29-1.73-3.94-1.73c-1.1,0-2.06,0.26-2.86,0.77c-0.8,0.52-1.43,1.27-1.87,2.27c-0.44,1-0.67,2.23-0.67,3.69
				c0,2.16,0.49,3.82,1.48,4.99C1033.57,461.58,1034.88,462.16,1036.51,462.16z"/>
			<path d="M1050.73,464.43c-0.48,0-0.85-0.13-1.1-0.4s-0.38-0.64-0.38-1.12V447.9c0-0.48,0.12-0.85,0.36-1.1s0.59-0.38,1.04-0.38
				s0.81,0.13,1.06,0.38s0.38,0.62,0.38,1.1v2.92h-0.36c0.38-1.42,1.12-2.51,2.2-3.28c1.08-0.77,2.41-1.18,4-1.22
				c0.36-0.02,0.65,0.05,0.86,0.23c0.22,0.18,0.33,0.49,0.36,0.92c0.02,0.41-0.07,0.73-0.29,0.97c-0.22,0.24-0.55,0.38-1.01,0.43
				l-0.58,0.07c-1.63,0.14-2.89,0.67-3.76,1.57c-0.88,0.9-1.31,2.13-1.31,3.69v8.71c0,0.48-0.13,0.85-0.38,1.12
				S1051.21,464.43,1050.73,464.43z"/>
			<path d="M1063.59,442.47c-0.6,0-1.07-0.16-1.4-0.49c-0.34-0.32-0.5-0.76-0.5-1.31c0-0.58,0.17-1.01,0.5-1.31
				c0.33-0.3,0.8-0.45,1.4-0.45c0.62,0,1.1,0.15,1.42,0.45c0.32,0.3,0.49,0.74,0.49,1.31c0,0.55-0.16,0.99-0.49,1.31
				C1064.68,442.3,1064.21,442.47,1063.59,442.47z M1063.59,464.35c-0.48,0-0.84-0.14-1.08-0.41s-0.36-0.67-0.36-1.17v-14.72
				c0-0.5,0.12-0.89,0.36-1.15c0.24-0.26,0.6-0.4,1.08-0.4c0.46,0,0.82,0.13,1.08,0.4c0.26,0.26,0.4,0.65,0.4,1.15v14.72
				c0,0.5-0.13,0.89-0.38,1.17S1064.07,464.35,1063.59,464.35z"/>
			<path d="M1081.23,442.47c-0.6,0-1.07-0.16-1.4-0.49c-0.34-0.32-0.5-0.76-0.5-1.31c0-0.58,0.17-1.01,0.5-1.31
				c0.33-0.3,0.8-0.45,1.4-0.45c0.62,0,1.1,0.15,1.42,0.45c0.32,0.3,0.49,0.74,0.49,1.31c0,0.55-0.16,0.99-0.49,1.31
				C1082.32,442.3,1081.85,442.47,1081.23,442.47z M1081.23,464.35c-0.48,0-0.84-0.14-1.08-0.41s-0.36-0.67-0.36-1.17v-14.72
				c0-0.5,0.12-0.89,0.36-1.15c0.24-0.26,0.6-0.4,1.08-0.4c0.46,0,0.82,0.13,1.08,0.4c0.26,0.26,0.4,0.65,0.4,1.15v14.72
				c0,0.5-0.13,0.89-0.38,1.17S1081.71,464.35,1081.23,464.35z"/>
			<path d="M1089.58,464.43c-0.48,0-0.84-0.13-1.08-0.4s-0.36-0.64-0.36-1.12V447.9c0-0.48,0.12-0.85,0.36-1.1s0.59-0.38,1.04-0.38
				s0.81,0.13,1.06,0.38s0.38,0.62,0.38,1.1v3.1l-0.4-0.43c0.5-1.39,1.33-2.44,2.47-3.15c1.14-0.71,2.45-1.06,3.94-1.06
				c1.39,0,2.55,0.25,3.47,0.76c0.92,0.5,1.61,1.27,2.07,2.29c0.46,1.02,0.68,2.31,0.68,3.87v9.65c0,0.48-0.13,0.85-0.38,1.12
				s-0.61,0.4-1.06,0.4c-0.48,0-0.85-0.13-1.1-0.4s-0.38-0.64-0.38-1.12v-9.47c0-1.63-0.32-2.83-0.95-3.58
				c-0.64-0.76-1.65-1.13-3.04-1.13c-1.61,0-2.89,0.5-3.83,1.49c-0.95,1-1.42,2.32-1.42,3.98v8.71
				C1091.05,463.92,1090.56,464.43,1089.58,464.43z"/>
			<path d="M1123.38,464.5c-1.2,0-2.27-0.23-3.22-0.7c-0.95-0.47-1.7-1.11-2.25-1.93c-0.55-0.82-0.83-1.73-0.83-2.74
				c0-1.3,0.33-2.32,0.99-3.06c0.66-0.74,1.75-1.27,3.28-1.58c1.52-0.31,3.61-0.47,6.25-0.47h1.62v1.91h-1.58
				c-1.94,0-3.47,0.09-4.59,0.27c-1.12,0.18-1.9,0.49-2.34,0.92c-0.44,0.43-0.67,1.04-0.67,1.84c0,0.98,0.34,1.79,1.03,2.41
				c0.68,0.63,1.61,0.94,2.79,0.94c0.96,0,1.81-0.23,2.54-0.68c0.73-0.46,1.31-1.08,1.73-1.87s0.63-1.7,0.63-2.74v-4.1
				c0-1.49-0.3-2.56-0.9-3.22c-0.6-0.66-1.58-0.99-2.95-0.99c-0.84,0-1.68,0.11-2.52,0.32c-0.84,0.22-1.73,0.56-2.66,1.04
				c-0.34,0.17-0.63,0.22-0.86,0.16c-0.24-0.06-0.43-0.19-0.58-0.38c-0.14-0.19-0.23-0.41-0.25-0.67c-0.02-0.25,0.03-0.5,0.16-0.74
				c0.13-0.24,0.34-0.43,0.63-0.58c1.06-0.53,2.1-0.91,3.13-1.15s2.02-0.36,2.95-0.36c1.51,0,2.76,0.25,3.74,0.74
				c0.98,0.49,1.72,1.24,2.2,2.23c0.48,1,0.72,2.27,0.72,3.83v9.76c0,0.48-0.11,0.85-0.34,1.12c-0.23,0.26-0.56,0.4-0.99,0.4
				c-0.46,0-0.8-0.13-1.04-0.4c-0.24-0.26-0.36-0.64-0.36-1.12v-2.81h0.32c-0.19,0.91-0.56,1.69-1.1,2.34
				c-0.54,0.65-1.21,1.15-2,1.51C1125.25,464.32,1124.36,464.5,1123.38,464.5z"/>
			<path d="M1138.46,464.43c-0.48,0-0.84-0.13-1.08-0.4c-0.24-0.26-0.36-0.64-0.36-1.12V447.9c0-0.48,0.12-0.85,0.36-1.1
				c0.24-0.25,0.59-0.38,1.04-0.38s0.81,0.13,1.06,0.38s0.38,0.62,0.38,1.1v3.17l-0.4-0.5c0.46-1.34,1.19-2.38,2.21-3.11
				c1.02-0.73,2.24-1.1,3.65-1.1c1.49,0,2.69,0.35,3.62,1.06c0.92,0.71,1.54,1.81,1.85,3.29h-0.54c0.43-1.34,1.21-2.41,2.32-3.19
				c1.12-0.78,2.42-1.17,3.91-1.17c1.32,0,2.41,0.25,3.26,0.76c0.85,0.5,1.49,1.27,1.93,2.29c0.43,1.02,0.65,2.31,0.65,3.87v9.65
				c0,0.48-0.13,0.85-0.38,1.12s-0.62,0.4-1.1,0.4c-0.46,0-0.81-0.13-1.06-0.4s-0.38-0.64-0.38-1.12v-9.5
				c0-1.61-0.28-2.79-0.83-3.55c-0.55-0.76-1.49-1.13-2.81-1.13c-1.44,0-2.57,0.5-3.4,1.49s-1.24,2.35-1.24,4.05v8.64
				c0,0.48-0.13,0.85-0.38,1.12s-0.62,0.4-1.1,0.4c-0.46,0-0.81-0.13-1.06-0.4s-0.38-0.64-0.38-1.12v-9.5
				c0-1.61-0.28-2.79-0.85-3.55c-0.56-0.76-1.49-1.13-2.79-1.13c-1.44,0-2.57,0.5-3.4,1.49s-1.24,2.35-1.24,4.05v8.64
				C1139.94,463.92,1139.45,464.43,1138.46,464.43z"/>
			<path d="M1176.62,464.5c-1.58,0-2.95-0.41-4.09-1.22c-1.14-0.82-1.9-1.91-2.29-3.28l0.4-0.4v3.31c0,0.48-0.13,0.85-0.38,1.12
				s-0.61,0.4-1.06,0.4c-0.48,0-0.84-0.13-1.08-0.4s-0.36-0.64-0.36-1.12v-22.9c0-0.48,0.12-0.85,0.36-1.1s0.6-0.38,1.08-0.38
				c0.46,0,0.82,0.13,1.08,0.38c0.26,0.25,0.4,0.62,0.4,1.1v10.73h-0.43c0.41-1.34,1.18-2.41,2.3-3.2c1.13-0.79,2.48-1.19,4.07-1.19
				s2.95,0.37,4.1,1.1c1.15,0.73,2.05,1.78,2.68,3.13c0.64,1.36,0.95,2.97,0.95,4.84c0,1.85-0.32,3.45-0.95,4.81
				c-0.64,1.36-1.54,2.41-2.7,3.15S1178.18,464.5,1176.62,464.5z M1176.01,462.16c1.1,0,2.06-0.26,2.86-0.79
				c0.8-0.53,1.43-1.3,1.87-2.3s0.67-2.22,0.67-3.64c0-2.18-0.49-3.85-1.46-5c-0.97-1.15-2.29-1.73-3.94-1.73
				c-1.08,0-2.03,0.26-2.84,0.77c-0.82,0.52-1.45,1.27-1.89,2.27c-0.44,1-0.67,2.23-0.67,3.69c0,2.16,0.49,3.82,1.48,4.99
				C1173.07,461.58,1174.38,462.16,1176.01,462.16z"/>
			<path d="M1190.2,442.47c-0.6,0-1.07-0.16-1.4-0.49c-0.34-0.32-0.5-0.76-0.5-1.31c0-0.58,0.17-1.01,0.5-1.31
				c0.33-0.3,0.8-0.45,1.4-0.45c0.62,0,1.1,0.15,1.42,0.45c0.32,0.3,0.49,0.74,0.49,1.31c0,0.55-0.16,0.99-0.49,1.31
				C1191.29,442.3,1190.82,442.47,1190.2,442.47z M1190.2,464.35c-0.48,0-0.84-0.14-1.08-0.41s-0.36-0.67-0.36-1.17v-14.72
				c0-0.5,0.12-0.89,0.36-1.15c0.24-0.26,0.6-0.4,1.08-0.4c0.46,0,0.82,0.13,1.08,0.4c0.26,0.26,0.4,0.65,0.4,1.15v14.72
				c0,0.5-0.13,0.89-0.38,1.17S1190.68,464.35,1190.2,464.35z"/>
			<path d="M1204.13,464.5c-1.37,0-2.51-0.25-3.44-0.74c-0.92-0.49-1.61-1.21-2.07-2.16s-0.68-2.11-0.68-3.47v-9.18h-2.41
				c-0.41,0-0.72-0.1-0.94-0.31s-0.32-0.49-0.32-0.85c0-0.36,0.11-0.64,0.32-0.83s0.53-0.29,0.94-0.29h2.41v-4.14
				c0-0.48,0.13-0.85,0.4-1.1c0.26-0.25,0.62-0.38,1.08-0.38s0.81,0.13,1.06,0.38s0.38,0.62,0.38,1.1v4.14h4.54
				c0.41,0,0.72,0.1,0.94,0.29s0.32,0.47,0.32,0.83c0,0.36-0.11,0.64-0.32,0.85s-0.53,0.31-0.94,0.31h-4.54v8.89
				c0,1.37,0.29,2.41,0.86,3.11c0.58,0.71,1.51,1.06,2.81,1.06c0.46,0,0.85-0.05,1.17-0.14c0.32-0.09,0.59-0.14,0.81-0.14
				c0.22-0.02,0.4,0.05,0.54,0.22c0.14,0.17,0.22,0.46,0.22,0.86c0,0.29-0.05,0.55-0.16,0.79c-0.11,0.24-0.29,0.41-0.56,0.5
				c-0.29,0.1-0.67,0.19-1.13,0.27C1204.94,464.46,1204.51,464.5,1204.13,464.5z"/>
			<path d="M1216.98,464.5c-1.7,0-3.18-0.37-4.43-1.12c-1.25-0.74-2.21-1.79-2.9-3.15c-0.68-1.36-1.03-2.96-1.03-4.81
				c0-1.39,0.19-2.65,0.58-3.76c0.38-1.12,0.95-2.07,1.69-2.86s1.63-1.4,2.65-1.82c1.02-0.42,2.17-0.63,3.44-0.63
				c1.7,0,3.18,0.37,4.43,1.12s2.21,1.79,2.9,3.15c0.68,1.36,1.03,2.96,1.03,4.81c0,1.39-0.19,2.64-0.58,3.74
				c-0.38,1.1-0.95,2.06-1.69,2.86c-0.74,0.8-1.63,1.42-2.65,1.84C1219.4,464.29,1218.25,464.5,1216.98,464.5z M1216.98,462.16
				c1.08,0,2.03-0.26,2.84-0.79c0.82-0.53,1.45-1.3,1.89-2.3c0.44-1.01,0.67-2.22,0.67-3.64c0-2.18-0.49-3.85-1.46-5
				c-0.97-1.15-2.29-1.73-3.94-1.73c-1.1,0-2.06,0.26-2.86,0.77c-0.8,0.52-1.43,1.27-1.87,2.27c-0.44,1-0.67,2.23-0.67,3.69
				c0,2.16,0.49,3.82,1.48,4.99C1214.04,461.58,1215.35,462.16,1216.98,462.16z"/>
			<path d="M769.58,507.7c-1.56,0-2.92-0.37-4.09-1.12s-2.06-1.79-2.7-3.15c-0.64-1.36-0.95-2.96-0.95-4.81
				c0-1.87,0.32-3.49,0.95-4.84c0.64-1.36,1.54-2.4,2.7-3.13c1.16-0.73,2.53-1.1,4.09-1.1c1.58,0,2.94,0.4,4.07,1.19
				s1.88,1.86,2.27,3.2h-0.4v-10.73c0-0.48,0.13-0.85,0.38-1.1s0.62-0.38,1.1-0.38c0.46,0,0.81,0.13,1.06,0.38s0.38,0.62,0.38,1.1
				v22.9c0,0.48-0.12,0.85-0.36,1.12s-0.6,0.4-1.08,0.4c-0.46,0-0.81-0.13-1.06-0.4s-0.38-0.64-0.38-1.12v-3.42l0.4,0.5
				c-0.38,1.37-1.15,2.46-2.29,3.28C772.52,507.29,771.16,507.7,769.58,507.7z M770.19,505.36c1.08,0,2.03-0.26,2.84-0.79
				c0.82-0.53,1.45-1.3,1.89-2.3c0.44-1.01,0.67-2.22,0.67-3.64c0-2.18-0.49-3.85-1.46-5c-0.97-1.15-2.29-1.73-3.94-1.73
				c-1.1,0-2.06,0.26-2.86,0.77c-0.8,0.52-1.43,1.27-1.87,2.27c-0.44,1-0.67,2.23-0.67,3.69c0,2.16,0.49,3.82,1.48,4.99
				C767.25,504.78,768.56,505.36,770.19,505.36z"/>
			<path d="M791.79,507.7c-1.85,0-3.44-0.37-4.77-1.1c-1.33-0.73-2.36-1.77-3.1-3.11c-0.73-1.34-1.1-2.95-1.1-4.82
				c0-1.82,0.36-3.41,1.08-4.77c0.72-1.36,1.71-2.42,2.97-3.19s2.72-1.15,4.37-1.15c1.18,0,2.23,0.2,3.17,0.59
				c0.94,0.4,1.73,0.97,2.39,1.71c0.66,0.74,1.16,1.64,1.51,2.7c0.35,1.06,0.52,2.24,0.52,3.56c0,0.38-0.11,0.67-0.32,0.85
				c-0.22,0.18-0.53,0.27-0.94,0.27h-12.53v-1.91h11.84l-0.58,0.47c0-1.3-0.19-2.39-0.58-3.29c-0.38-0.9-0.94-1.59-1.67-2.07
				c-0.73-0.48-1.65-0.72-2.75-0.72c-1.22,0-2.26,0.28-3.11,0.85c-0.85,0.56-1.49,1.34-1.93,2.34c-0.43,1-0.65,2.15-0.65,3.47v0.22
				c0,2.21,0.53,3.89,1.6,5.04c1.07,1.15,2.58,1.73,4.55,1.73c0.82,0,1.63-0.11,2.43-0.32c0.8-0.22,1.59-0.58,2.36-1.08
				c0.34-0.22,0.64-0.32,0.92-0.31c0.28,0.01,0.5,0.1,0.67,0.25c0.17,0.16,0.28,0.35,0.34,0.58c0.06,0.23,0.04,0.47-0.07,0.74
				c-0.11,0.26-0.32,0.49-0.63,0.68c-0.79,0.58-1.73,1.02-2.81,1.33S792.84,507.7,791.79,507.7z"/>
			<path d="M808.39,507.7c-1.73,0-3.05-0.53-3.96-1.58c-0.91-1.06-1.37-2.57-1.37-4.54v-18.36c0-0.48,0.12-0.85,0.36-1.1
				s0.6-0.38,1.08-0.38c0.46,0,0.82,0.13,1.08,0.38c0.26,0.25,0.4,0.62,0.4,1.1v18.14c0,1.3,0.26,2.26,0.77,2.9
				c0.52,0.64,1.28,0.95,2.29,0.95c0.22,0,0.41-0.01,0.58-0.04c0.17-0.02,0.34-0.04,0.5-0.04c0.26-0.02,0.45,0.04,0.56,0.18
				c0.11,0.14,0.16,0.43,0.16,0.86c0,0.43-0.1,0.76-0.29,0.97c-0.19,0.22-0.5,0.36-0.94,0.43c-0.19,0.02-0.4,0.05-0.61,0.07
				C808.78,507.69,808.58,507.7,808.39,507.7z"/>
			<path d="M819.04,507.7c-1.73,0-3.05-0.53-3.96-1.58c-0.91-1.06-1.37-2.57-1.37-4.54v-18.36c0-0.48,0.12-0.85,0.36-1.1
				s0.6-0.38,1.08-0.38c0.46,0,0.82,0.13,1.08,0.38c0.26,0.25,0.4,0.62,0.4,1.1v18.14c0,1.3,0.26,2.26,0.77,2.9
				c0.52,0.64,1.28,0.95,2.29,0.95c0.22,0,0.41-0.01,0.58-0.04c0.17-0.02,0.34-0.04,0.5-0.04c0.26-0.02,0.45,0.04,0.56,0.18
				c0.11,0.14,0.16,0.43,0.16,0.86c0,0.43-0.1,0.76-0.29,0.97c-0.19,0.22-0.5,0.36-0.94,0.43c-0.19,0.02-0.4,0.05-0.61,0.07
				C819.44,507.69,819.23,507.7,819.04,507.7z"/>
			<path d="M826.1,489.09c-0.24,0.31-0.49,0.49-0.76,0.52c-0.26,0.04-0.49-0.01-0.68-0.14c-0.19-0.13-0.29-0.33-0.31-0.59
				s0.1-0.55,0.34-0.86c0.38-0.5,0.65-1.01,0.79-1.53c0.14-0.52,0.22-0.98,0.22-1.39l0.14,0.72c-0.62,0-1.12-0.19-1.49-0.56
				s-0.56-0.85-0.56-1.42c0-0.6,0.17-1.08,0.52-1.44s0.81-0.54,1.39-0.54c0.62,0,1.12,0.21,1.48,0.63c0.36,0.42,0.54,1.03,0.54,1.82
				c0,0.5-0.05,1.03-0.14,1.57c-0.1,0.54-0.26,1.09-0.5,1.64C826.83,488.05,826.5,488.58,826.1,489.09z"/>
			<path d="M840.46,507.7c-1.85,0-3.44-0.37-4.77-1.1c-1.33-0.73-2.36-1.77-3.1-3.11c-0.73-1.34-1.1-2.95-1.1-4.82
				c0-1.82,0.36-3.41,1.08-4.77c0.72-1.36,1.71-2.42,2.97-3.19s2.72-1.15,4.37-1.15c1.18,0,2.23,0.2,3.17,0.59
				c0.94,0.4,1.73,0.97,2.39,1.71c0.66,0.74,1.16,1.64,1.51,2.7c0.35,1.06,0.52,2.24,0.52,3.56c0,0.38-0.11,0.67-0.32,0.85
				c-0.22,0.18-0.53,0.27-0.94,0.27h-12.53v-1.91h11.84L845,497.8c0-1.3-0.19-2.39-0.58-3.29c-0.38-0.9-0.94-1.59-1.67-2.07
				c-0.73-0.48-1.65-0.72-2.75-0.72c-1.22,0-2.26,0.28-3.11,0.85c-0.85,0.56-1.49,1.34-1.93,2.34c-0.43,1-0.65,2.15-0.65,3.47v0.22
				c0,2.21,0.53,3.89,1.6,5.04c1.07,1.15,2.58,1.73,4.55,1.73c0.82,0,1.63-0.11,2.43-0.32c0.8-0.22,1.59-0.58,2.36-1.08
				c0.34-0.22,0.64-0.32,0.92-0.31c0.28,0.01,0.5,0.1,0.67,0.25c0.17,0.16,0.28,0.35,0.34,0.58c0.06,0.23,0.04,0.47-0.07,0.74
				c-0.11,0.26-0.32,0.49-0.63,0.68c-0.79,0.58-1.73,1.02-2.81,1.33S841.52,507.7,840.46,507.7z"/>
			<path d="M858.39,507.7c-1.56,0-2.92-0.37-4.09-1.12s-2.06-1.79-2.7-3.15c-0.64-1.36-0.95-2.96-0.95-4.81
				c0-1.87,0.32-3.49,0.95-4.84c0.64-1.36,1.54-2.4,2.7-3.13c1.16-0.73,2.53-1.1,4.09-1.1c1.58,0,2.94,0.4,4.07,1.19
				s1.88,1.86,2.27,3.2h-0.4v-10.73c0-0.48,0.13-0.85,0.38-1.1s0.62-0.38,1.1-0.38c0.46,0,0.81,0.13,1.06,0.38s0.38,0.62,0.38,1.1
				v22.9c0,0.48-0.12,0.85-0.36,1.12s-0.6,0.4-1.08,0.4c-0.46,0-0.81-0.13-1.06-0.4s-0.38-0.64-0.38-1.12v-3.42l0.4,0.5
				c-0.38,1.37-1.15,2.46-2.29,3.28C861.33,507.29,859.97,507.7,858.39,507.7z M859,505.36c1.08,0,2.03-0.26,2.84-0.79
				c0.82-0.53,1.45-1.3,1.89-2.3c0.44-1.01,0.67-2.22,0.67-3.64c0-2.18-0.49-3.85-1.46-5c-0.97-1.15-2.29-1.73-3.94-1.73
				c-1.1,0-2.06,0.26-2.86,0.77c-0.8,0.52-1.43,1.27-1.87,2.27c-0.44,1-0.67,2.23-0.67,3.69c0,2.16,0.49,3.82,1.48,4.99
				C856.06,504.78,857.37,505.36,859,505.36z"/>
			<path d="M874.16,485.67c-0.6,0-1.07-0.16-1.4-0.49c-0.34-0.32-0.5-0.76-0.5-1.31c0-0.58,0.17-1.01,0.5-1.31
				c0.33-0.3,0.8-0.45,1.4-0.45c0.62,0,1.1,0.15,1.42,0.45c0.32,0.3,0.49,0.74,0.49,1.31c0,0.55-0.16,0.99-0.49,1.31
				C875.25,485.5,874.78,485.67,874.16,485.67z M874.16,507.55c-0.48,0-0.84-0.14-1.08-0.41s-0.36-0.67-0.36-1.17v-14.72
				c0-0.5,0.12-0.89,0.36-1.15c0.24-0.26,0.6-0.4,1.08-0.4c0.46,0,0.82,0.13,1.08,0.4c0.26,0.26,0.4,0.65,0.4,1.15v14.72
				c0,0.5-0.13,0.89-0.38,1.17S874.64,507.55,874.16,507.55z"/>
			<path d="M888.09,507.7c-1.37,0-2.51-0.25-3.44-0.74c-0.92-0.49-1.61-1.21-2.07-2.16s-0.68-2.11-0.68-3.47v-9.18h-2.41
				c-0.41,0-0.72-0.1-0.94-0.31s-0.32-0.49-0.32-0.85c0-0.36,0.11-0.64,0.32-0.83s0.53-0.29,0.94-0.29h2.41v-4.14
				c0-0.48,0.13-0.85,0.4-1.1c0.26-0.25,0.62-0.38,1.08-0.38s0.81,0.13,1.06,0.38s0.38,0.62,0.38,1.1v4.14h4.54
				c0.41,0,0.72,0.1,0.94,0.29s0.32,0.47,0.32,0.83c0,0.36-0.11,0.64-0.32,0.85s-0.53,0.31-0.94,0.31h-4.54v8.89
				c0,1.37,0.29,2.41,0.86,3.11c0.58,0.71,1.51,1.06,2.81,1.06c0.46,0,0.85-0.05,1.17-0.14c0.32-0.09,0.59-0.14,0.81-0.14
				c0.22-0.02,0.4,0.05,0.54,0.22c0.14,0.17,0.22,0.46,0.22,0.86c0,0.29-0.05,0.55-0.16,0.79c-0.11,0.24-0.29,0.41-0.56,0.5
				c-0.29,0.1-0.67,0.19-1.13,0.27C888.9,507.66,888.47,507.7,888.09,507.7z"/>
			<path d="M900.94,507.7c-1.7,0-3.18-0.37-4.43-1.12c-1.25-0.74-2.21-1.79-2.9-3.15c-0.68-1.36-1.03-2.96-1.03-4.81
				c0-1.39,0.19-2.65,0.58-3.76c0.38-1.12,0.95-2.07,1.69-2.86s1.63-1.4,2.65-1.82c1.02-0.42,2.17-0.63,3.44-0.63
				c1.7,0,3.18,0.37,4.43,1.12s2.21,1.79,2.9,3.15c0.68,1.36,1.03,2.96,1.03,4.81c0,1.39-0.19,2.64-0.58,3.74
				c-0.38,1.1-0.95,2.06-1.69,2.86c-0.74,0.8-1.63,1.42-2.65,1.84C903.36,507.49,902.21,507.7,900.94,507.7z M900.94,505.36
				c1.08,0,2.03-0.26,2.84-0.79c0.82-0.53,1.45-1.3,1.89-2.3c0.44-1.01,0.67-2.22,0.67-3.64c0-2.18-0.49-3.85-1.46-5
				c-0.97-1.15-2.29-1.73-3.94-1.73c-1.1,0-2.06,0.26-2.86,0.77c-0.8,0.52-1.43,1.27-1.87,2.27c-0.44,1-0.67,2.23-0.67,3.69
				c0,2.16,0.49,3.82,1.48,4.99C898,504.78,899.31,505.36,900.94,505.36z"/>
			<path d="M915.16,507.63c-0.48,0-0.85-0.13-1.1-0.4s-0.38-0.64-0.38-1.12V491.1c0-0.48,0.12-0.85,0.36-1.1s0.59-0.38,1.04-0.38
				s0.81,0.13,1.06,0.38s0.38,0.62,0.38,1.1v2.92h-0.36c0.38-1.42,1.12-2.51,2.2-3.28c1.08-0.77,2.41-1.18,4-1.22
				c0.36-0.02,0.65,0.05,0.86,0.23c0.22,0.18,0.33,0.49,0.36,0.92c0.02,0.41-0.07,0.73-0.29,0.97c-0.22,0.24-0.55,0.38-1.01,0.43
				l-0.58,0.07c-1.63,0.14-2.89,0.67-3.76,1.57c-0.88,0.9-1.31,2.13-1.31,3.69v8.71c0,0.48-0.13,0.85-0.38,1.12
				S915.64,507.63,915.16,507.63z"/>
			<path d="M928.01,485.67c-0.6,0-1.07-0.16-1.4-0.49c-0.34-0.32-0.5-0.76-0.5-1.31c0-0.58,0.17-1.01,0.5-1.31
				c0.33-0.3,0.8-0.45,1.4-0.45c0.62,0,1.1,0.15,1.42,0.45c0.32,0.3,0.49,0.74,0.49,1.31c0,0.55-0.16,0.99-0.49,1.31
				C929.11,485.5,928.63,485.67,928.01,485.67z M928.01,507.55c-0.48,0-0.84-0.14-1.08-0.41s-0.36-0.67-0.36-1.17v-14.72
				c0-0.5,0.12-0.89,0.36-1.15c0.24-0.26,0.6-0.4,1.08-0.4c0.46,0,0.82,0.13,1.08,0.4c0.26,0.26,0.4,0.65,0.4,1.15v14.72
				c0,0.5-0.13,0.89-0.38,1.17S928.49,507.55,928.01,507.55z"/>
			<path d="M940.43,507.7c-1.2,0-2.27-0.23-3.22-0.7c-0.95-0.47-1.7-1.11-2.25-1.93c-0.55-0.82-0.83-1.73-0.83-2.74
				c0-1.3,0.33-2.32,0.99-3.06c0.66-0.74,1.75-1.27,3.28-1.58c1.52-0.31,3.61-0.47,6.25-0.47h1.62v1.91h-1.58
				c-1.94,0-3.47,0.09-4.59,0.27c-1.12,0.18-1.9,0.49-2.34,0.92c-0.44,0.43-0.67,1.04-0.67,1.84c0,0.98,0.34,1.79,1.03,2.41
				c0.68,0.63,1.61,0.94,2.79,0.94c0.96,0,1.81-0.23,2.54-0.68c0.73-0.46,1.31-1.08,1.73-1.87s0.63-1.7,0.63-2.74v-4.1
				c0-1.49-0.3-2.56-0.9-3.22c-0.6-0.66-1.58-0.99-2.95-0.99c-0.84,0-1.68,0.11-2.52,0.32c-0.84,0.22-1.73,0.56-2.66,1.04
				c-0.34,0.17-0.63,0.22-0.86,0.16c-0.24-0.06-0.43-0.19-0.58-0.38c-0.14-0.19-0.23-0.41-0.25-0.67c-0.02-0.25,0.03-0.5,0.16-0.74
				c0.13-0.24,0.34-0.43,0.63-0.58c1.06-0.53,2.1-0.91,3.13-1.15s2.02-0.36,2.95-0.36c1.51,0,2.76,0.25,3.74,0.74
				c0.98,0.49,1.72,1.24,2.2,2.23c0.48,1,0.72,2.27,0.72,3.83v9.76c0,0.48-0.11,0.85-0.34,1.12c-0.23,0.26-0.56,0.4-0.99,0.4
				c-0.46,0-0.8-0.13-1.04-0.4c-0.24-0.26-0.36-0.64-0.36-1.12v-2.81h0.32c-0.19,0.91-0.56,1.69-1.1,2.34
				c-0.54,0.65-1.21,1.15-2,1.51C942.3,507.52,941.41,507.7,940.43,507.7z"/>
			<path d="M971.17,507.7c-1.85,0-3.44-0.37-4.77-1.1c-1.33-0.73-2.36-1.77-3.1-3.11c-0.73-1.34-1.1-2.95-1.1-4.82
				c0-1.82,0.36-3.41,1.08-4.77c0.72-1.36,1.71-2.42,2.97-3.19s2.72-1.15,4.37-1.15c1.18,0,2.23,0.2,3.17,0.59
				c0.94,0.4,1.73,0.97,2.39,1.71c0.66,0.74,1.16,1.64,1.51,2.7c0.35,1.06,0.52,2.24,0.52,3.56c0,0.38-0.11,0.67-0.32,0.85
				c-0.22,0.18-0.53,0.27-0.94,0.27h-12.53v-1.91h11.84l-0.58,0.47c0-1.3-0.19-2.39-0.58-3.29c-0.38-0.9-0.94-1.59-1.67-2.07
				c-0.73-0.48-1.65-0.72-2.75-0.72c-1.22,0-2.26,0.28-3.11,0.85c-0.85,0.56-1.49,1.34-1.93,2.34c-0.43,1-0.65,2.15-0.65,3.47v0.22
				c0,2.21,0.53,3.89,1.6,5.04c1.07,1.15,2.58,1.73,4.55,1.73c0.82,0,1.63-0.11,2.43-0.32c0.8-0.22,1.59-0.58,2.36-1.08
				c0.34-0.22,0.64-0.32,0.92-0.31c0.28,0.01,0.5,0.1,0.67,0.25c0.17,0.16,0.28,0.35,0.34,0.58c0.06,0.23,0.04,0.47-0.07,0.74
				c-0.11,0.26-0.32,0.49-0.63,0.68c-0.79,0.58-1.73,1.02-2.81,1.33S972.23,507.7,971.17,507.7z"/>
			<path d="M998.39,507.7c-1.56,0-2.92-0.37-4.09-1.12s-2.06-1.79-2.7-3.15c-0.64-1.36-0.95-2.96-0.95-4.81
				c0-1.87,0.32-3.49,0.95-4.84c0.64-1.36,1.54-2.4,2.7-3.13c1.16-0.73,2.53-1.1,4.09-1.1c1.58,0,2.94,0.4,4.07,1.19
				s1.88,1.86,2.27,3.2h-0.4v-10.73c0-0.48,0.13-0.85,0.38-1.1s0.62-0.38,1.1-0.38c0.46,0,0.81,0.13,1.06,0.38s0.38,0.62,0.38,1.1
				v22.9c0,0.48-0.12,0.85-0.36,1.12s-0.6,0.4-1.08,0.4c-0.46,0-0.81-0.13-1.06-0.4s-0.38-0.64-0.38-1.12v-3.42l0.4,0.5
				c-0.38,1.37-1.15,2.46-2.29,3.28C1001.34,507.29,999.97,507.7,998.39,507.7z M999,505.36c1.08,0,2.03-0.26,2.84-0.79
				c0.82-0.53,1.45-1.3,1.89-2.3c0.44-1.01,0.67-2.22,0.67-3.64c0-2.18-0.49-3.85-1.46-5c-0.97-1.15-2.29-1.73-3.94-1.73
				c-1.1,0-2.06,0.26-2.86,0.77c-0.8,0.52-1.43,1.27-1.87,2.27c-0.44,1-0.67,2.23-0.67,3.69c0,2.16,0.49,3.82,1.48,4.99
				C996.06,504.78,997.37,505.36,999,505.36z"/>
			<path d="M1020.6,507.7c-1.85,0-3.44-0.37-4.77-1.1c-1.33-0.73-2.36-1.77-3.1-3.11c-0.73-1.34-1.1-2.95-1.1-4.82
				c0-1.82,0.36-3.41,1.08-4.77c0.72-1.36,1.71-2.42,2.97-3.19s2.72-1.15,4.37-1.15c1.18,0,2.23,0.2,3.17,0.59
				c0.94,0.4,1.73,0.97,2.39,1.71c0.66,0.74,1.16,1.64,1.51,2.7c0.35,1.06,0.52,2.24,0.52,3.56c0,0.38-0.11,0.67-0.32,0.85
				c-0.22,0.18-0.53,0.27-0.94,0.27h-12.53v-1.91h11.84l-0.58,0.47c0-1.3-0.19-2.39-0.58-3.29c-0.38-0.9-0.94-1.59-1.67-2.07
				c-0.73-0.48-1.65-0.72-2.75-0.72c-1.22,0-2.26,0.28-3.11,0.85c-0.85,0.56-1.49,1.34-1.93,2.34c-0.43,1-0.65,2.15-0.65,3.47v0.22
				c0,2.21,0.53,3.89,1.6,5.04c1.07,1.15,2.58,1.73,4.55,1.73c0.82,0,1.63-0.11,2.43-0.32c0.8-0.22,1.59-0.58,2.36-1.08
				c0.34-0.22,0.64-0.32,0.92-0.31c0.28,0.01,0.5,0.1,0.67,0.25c0.17,0.16,0.28,0.35,0.34,0.58c0.06,0.23,0.04,0.47-0.07,0.74
				c-0.11,0.26-0.32,0.49-0.63,0.68c-0.79,0.58-1.73,1.02-2.81,1.33S1021.66,507.7,1020.6,507.7z"/>
			<path d="M1037.2,507.7c-1.73,0-3.05-0.53-3.96-1.58c-0.91-1.06-1.37-2.57-1.37-4.54v-18.36c0-0.48,0.12-0.85,0.36-1.1
				s0.6-0.38,1.08-0.38c0.46,0,0.82,0.13,1.08,0.38c0.26,0.25,0.4,0.62,0.4,1.1v18.14c0,1.3,0.26,2.26,0.77,2.9
				c0.52,0.64,1.28,0.95,2.29,0.95c0.22,0,0.41-0.01,0.58-0.04c0.17-0.02,0.34-0.04,0.5-0.04c0.26-0.02,0.45,0.04,0.56,0.18
				c0.11,0.14,0.16,0.43,0.16,0.86c0,0.43-0.1,0.76-0.29,0.97c-0.19,0.22-0.5,0.36-0.94,0.43c-0.19,0.02-0.4,0.05-0.61,0.07
				C1037.59,507.69,1037.39,507.7,1037.2,507.7z"/>
			<path d="M1047.85,507.7c-1.73,0-3.05-0.53-3.96-1.58c-0.91-1.06-1.37-2.57-1.37-4.54v-18.36c0-0.48,0.12-0.85,0.36-1.1
				s0.6-0.38,1.08-0.38c0.46,0,0.82,0.13,1.08,0.38c0.26,0.25,0.4,0.62,0.4,1.1v18.14c0,1.3,0.26,2.26,0.77,2.9
				c0.52,0.64,1.28,0.95,2.29,0.95c0.22,0,0.41-0.01,0.58-0.04c0.17-0.02,0.34-0.04,0.5-0.04c0.26-0.02,0.45,0.04,0.56,0.18
				c0.11,0.14,0.16,0.43,0.16,0.86c0,0.43-0.1,0.76-0.29,0.97c-0.19,0.22-0.5,0.36-0.94,0.43c-0.19,0.02-0.4,0.05-0.61,0.07
				C1048.25,507.69,1048.04,507.7,1047.85,507.7z"/>
			<path d="M1058.69,507.7c-1.2,0-2.27-0.23-3.22-0.7c-0.95-0.47-1.7-1.11-2.25-1.93c-0.55-0.82-0.83-1.73-0.83-2.74
				c0-1.3,0.33-2.32,0.99-3.06c0.66-0.74,1.75-1.27,3.28-1.58c1.52-0.31,3.61-0.47,6.25-0.47h1.62v1.91h-1.58
				c-1.94,0-3.47,0.09-4.59,0.27c-1.12,0.18-1.9,0.49-2.34,0.92c-0.44,0.43-0.67,1.04-0.67,1.84c0,0.98,0.34,1.79,1.03,2.41
				c0.68,0.63,1.61,0.94,2.79,0.94c0.96,0,1.81-0.23,2.54-0.68c0.73-0.46,1.31-1.08,1.73-1.87s0.63-1.7,0.63-2.74v-4.1
				c0-1.49-0.3-2.56-0.9-3.22c-0.6-0.66-1.58-0.99-2.95-0.99c-0.84,0-1.68,0.11-2.52,0.32c-0.84,0.22-1.73,0.56-2.66,1.04
				c-0.34,0.17-0.63,0.22-0.86,0.16c-0.24-0.06-0.43-0.19-0.58-0.38c-0.14-0.19-0.23-0.41-0.25-0.67c-0.02-0.25,0.03-0.5,0.16-0.74
				c0.13-0.24,0.34-0.43,0.63-0.58c1.06-0.53,2.1-0.91,3.13-1.15s2.02-0.36,2.95-0.36c1.51,0,2.76,0.25,3.74,0.74
				c0.98,0.49,1.72,1.24,2.2,2.23c0.48,1,0.72,2.27,0.72,3.83v9.76c0,0.48-0.11,0.85-0.34,1.12c-0.23,0.26-0.56,0.4-0.99,0.4
				c-0.46,0-0.8-0.13-1.04-0.4c-0.24-0.26-0.36-0.64-0.36-1.12v-2.81h0.32c-0.19,0.91-0.56,1.69-1.1,2.34
				c-0.54,0.65-1.21,1.15-2,1.51C1060.56,507.52,1059.67,507.7,1058.69,507.7z"/>
			<path d="M1089.29,514.18c-1.27,0-2.51-0.15-3.73-0.45s-2.31-0.77-3.29-1.42c-0.29-0.17-0.47-0.37-0.56-0.61
				c-0.08-0.24-0.1-0.47-0.05-0.7c0.05-0.23,0.16-0.43,0.32-0.61s0.37-0.29,0.59-0.34c0.23-0.05,0.46-0.01,0.7,0.11
				c1.06,0.65,2.06,1.09,3.02,1.33c0.96,0.24,1.91,0.36,2.84,0.36c1.7,0,2.99-0.46,3.87-1.37c0.88-0.91,1.31-2.23,1.31-3.96v-4.07
				h0.36c-0.36,1.39-1.12,2.5-2.29,3.31c-1.16,0.82-2.53,1.22-4.09,1.22c-1.61,0-3-0.37-4.18-1.1c-1.18-0.73-2.08-1.76-2.72-3.08
				c-0.64-1.32-0.95-2.84-0.95-4.57c0-1.3,0.18-2.48,0.54-3.55c0.36-1.07,0.88-1.98,1.57-2.74c0.68-0.76,1.51-1.34,2.48-1.76
				s2.06-0.63,3.26-0.63c1.58,0,2.95,0.4,4.1,1.21c1.15,0.8,1.9,1.89,2.23,3.26l-0.36,0.43v-3.35c0-0.48,0.13-0.85,0.38-1.1
				s0.61-0.38,1.06-0.38c0.48,0,0.84,0.13,1.08,0.38c0.24,0.25,0.36,0.62,0.36,1.1v15.01c0,2.66-0.67,4.67-2,6.03
				C1093.84,513.5,1091.88,514.18,1089.29,514.18z M1088.86,504.6c1.13,0,2.1-0.26,2.92-0.77c0.82-0.52,1.45-1.25,1.89-2.21
				s0.67-2.09,0.67-3.38c0-1.94-0.49-3.49-1.48-4.63c-0.98-1.14-2.32-1.71-4-1.71c-1.1,0-2.06,0.26-2.88,0.77
				c-0.82,0.52-1.45,1.25-1.89,2.2c-0.44,0.95-0.67,2.07-0.67,3.37c0,1.94,0.49,3.49,1.48,4.64
				C1085.88,504.03,1087.2,504.6,1088.86,504.6z"/>
			<path d="M1104.12,507.63c-0.48,0-0.85-0.13-1.1-0.4s-0.38-0.64-0.38-1.12V491.1c0-0.48,0.12-0.85,0.36-1.1s0.59-0.38,1.04-0.38
				s0.81,0.13,1.06,0.38s0.38,0.62,0.38,1.1v2.92h-0.36c0.38-1.42,1.12-2.51,2.2-3.28c1.08-0.77,2.41-1.18,4-1.22
				c0.36-0.02,0.65,0.05,0.86,0.23c0.22,0.18,0.33,0.49,0.36,0.92c0.02,0.41-0.07,0.73-0.29,0.97c-0.22,0.24-0.55,0.38-1.01,0.43
				l-0.58,0.07c-1.63,0.14-2.89,0.67-3.76,1.57c-0.88,0.9-1.31,2.13-1.31,3.69v8.71c0,0.48-0.13,0.85-0.38,1.12
				S1104.6,507.63,1104.12,507.63z"/>
			<path d="M1121.04,507.7c-1.2,0-2.27-0.23-3.22-0.7c-0.95-0.47-1.7-1.11-2.25-1.93c-0.55-0.82-0.83-1.73-0.83-2.74
				c0-1.3,0.33-2.32,0.99-3.06c0.66-0.74,1.75-1.27,3.28-1.58c1.52-0.31,3.61-0.47,6.25-0.47h1.62v1.91h-1.58
				c-1.94,0-3.47,0.09-4.59,0.27c-1.12,0.18-1.9,0.49-2.34,0.92c-0.44,0.43-0.67,1.04-0.67,1.84c0,0.98,0.34,1.79,1.03,2.41
				c0.68,0.63,1.61,0.94,2.79,0.94c0.96,0,1.81-0.23,2.54-0.68c0.73-0.46,1.31-1.08,1.73-1.87s0.63-1.7,0.63-2.74v-4.1
				c0-1.49-0.3-2.56-0.9-3.22c-0.6-0.66-1.58-0.99-2.95-0.99c-0.84,0-1.68,0.11-2.52,0.32c-0.84,0.22-1.73,0.56-2.66,1.04
				c-0.34,0.17-0.63,0.22-0.86,0.16c-0.24-0.06-0.43-0.19-0.58-0.38c-0.14-0.19-0.23-0.41-0.25-0.67c-0.02-0.25,0.03-0.5,0.16-0.74
				c0.13-0.24,0.34-0.43,0.63-0.58c1.06-0.53,2.1-0.91,3.13-1.15s2.02-0.36,2.95-0.36c1.51,0,2.76,0.25,3.74,0.74
				c0.98,0.49,1.72,1.24,2.2,2.23c0.48,1,0.72,2.27,0.72,3.83v9.76c0,0.48-0.11,0.85-0.34,1.12c-0.23,0.26-0.56,0.4-0.99,0.4
				c-0.46,0-0.8-0.13-1.04-0.4c-0.24-0.26-0.36-0.64-0.36-1.12v-2.81h0.32c-0.19,0.91-0.56,1.69-1.1,2.34
				c-0.54,0.65-1.21,1.15-2,1.51C1122.91,507.52,1122.02,507.7,1121.04,507.7z"/>
			<path d="M1136.99,507.63c-0.46,0-0.81-0.13-1.06-0.4s-0.38-0.64-0.38-1.12v-13.97h-2.3c-0.38,0-0.69-0.1-0.92-0.31
				c-0.23-0.2-0.34-0.49-0.34-0.85c0-0.36,0.11-0.64,0.34-0.83c0.23-0.19,0.53-0.29,0.92-0.29h3.1l-0.79,0.76v-1.37
				c0-2.26,0.55-3.98,1.64-5.18s2.71-1.88,4.84-2.05l1.08-0.11c0.36-0.02,0.65,0.03,0.86,0.16s0.35,0.31,0.41,0.52
				c0.06,0.22,0.07,0.44,0.02,0.68c-0.05,0.24-0.15,0.44-0.31,0.61c-0.16,0.17-0.34,0.26-0.56,0.29l-1.08,0.07
				c-1.42,0.1-2.44,0.53-3.06,1.31c-0.63,0.78-0.94,1.89-0.94,3.33v1.51l-0.43-0.54h9.79c0.46,0,0.81,0.13,1.06,0.4
				c0.25,0.26,0.38,0.65,0.38,1.15v14.54c0,0.5-0.12,0.89-0.36,1.17c-0.24,0.28-0.6,0.41-1.08,0.41c-0.48,0-0.85-0.14-1.1-0.41
				s-0.38-0.67-0.38-1.17v-13.82h-7.88v13.97C1138.46,507.12,1137.97,507.63,1136.99,507.63z M1147.86,485.67
				c-0.6,0-1.06-0.16-1.39-0.49c-0.32-0.32-0.49-0.76-0.49-1.31c0-0.58,0.16-1.01,0.49-1.31c0.32-0.3,0.79-0.45,1.39-0.45
				c0.6,0,1.06,0.15,1.39,0.45c0.32,0.3,0.49,0.74,0.49,1.31c0,0.55-0.16,0.99-0.49,1.31S1148.46,485.67,1147.86,485.67z"/>
			<path d="M1162.15,507.7c-1.75,0-3.26-0.38-4.54-1.15c-1.27-0.77-2.25-1.84-2.93-3.22c-0.68-1.38-1.03-2.98-1.03-4.81
				c0-1.39,0.19-2.64,0.58-3.74c0.38-1.1,0.95-2.05,1.69-2.83c0.74-0.78,1.64-1.37,2.68-1.78c1.04-0.41,2.23-0.61,3.55-0.61
				c0.86,0,1.76,0.13,2.7,0.4c0.94,0.26,1.79,0.72,2.56,1.37c0.24,0.17,0.4,0.37,0.47,0.61c0.07,0.24,0.07,0.47,0,0.7
				c-0.07,0.23-0.19,0.42-0.36,0.58s-0.38,0.25-0.63,0.27c-0.25,0.02-0.51-0.06-0.77-0.25c-0.63-0.48-1.26-0.82-1.91-1.01
				c-0.65-0.19-1.27-0.29-1.87-0.29c-0.94,0-1.75,0.15-2.45,0.45s-1.28,0.73-1.76,1.28c-0.48,0.55-0.85,1.24-1.1,2.05
				c-0.25,0.82-0.38,1.76-0.38,2.84c0,2.09,0.49,3.74,1.48,4.95c0.98,1.21,2.39,1.82,4.21,1.82c0.6,0,1.22-0.1,1.85-0.29
				s1.28-0.53,1.93-1.01c0.26-0.19,0.52-0.28,0.76-0.25c0.24,0.02,0.44,0.11,0.61,0.27c0.17,0.16,0.28,0.35,0.34,0.59
				c0.06,0.24,0.05,0.47-0.02,0.7c-0.07,0.23-0.23,0.43-0.47,0.59c-0.77,0.63-1.61,1.07-2.52,1.35
				C1163.9,507.56,1163.02,507.7,1162.15,507.7z"/>
			<path d="M1176.91,507.7c-1.2,0-2.27-0.23-3.22-0.7c-0.95-0.47-1.7-1.11-2.25-1.93c-0.55-0.82-0.83-1.73-0.83-2.74
				c0-1.3,0.33-2.32,0.99-3.06c0.66-0.74,1.75-1.27,3.28-1.58c1.52-0.31,3.61-0.47,6.25-0.47h1.62v1.91h-1.58
				c-1.94,0-3.47,0.09-4.59,0.27c-1.12,0.18-1.9,0.49-2.34,0.92c-0.44,0.43-0.67,1.04-0.67,1.84c0,0.98,0.34,1.79,1.03,2.41
				c0.68,0.63,1.61,0.94,2.79,0.94c0.96,0,1.81-0.23,2.54-0.68c0.73-0.46,1.31-1.08,1.73-1.87s0.63-1.7,0.63-2.74v-4.1
				c0-1.49-0.3-2.56-0.9-3.22c-0.6-0.66-1.58-0.99-2.95-0.99c-0.84,0-1.68,0.11-2.52,0.32c-0.84,0.22-1.73,0.56-2.66,1.04
				c-0.34,0.17-0.63,0.22-0.86,0.16c-0.24-0.06-0.43-0.19-0.58-0.38c-0.14-0.19-0.23-0.41-0.25-0.67c-0.02-0.25,0.03-0.5,0.16-0.74
				c0.13-0.24,0.34-0.43,0.63-0.58c1.06-0.53,2.1-0.91,3.13-1.15s2.02-0.36,2.95-0.36c1.51,0,2.76,0.25,3.74,0.74
				c0.98,0.49,1.72,1.24,2.2,2.23c0.48,1,0.72,2.27,0.72,3.83v9.76c0,0.48-0.11,0.85-0.34,1.12c-0.23,0.26-0.56,0.4-0.99,0.4
				c-0.46,0-0.8-0.13-1.04-0.4c-0.24-0.26-0.36-0.64-0.36-1.12v-2.81h0.32c-0.19,0.91-0.56,1.69-1.1,2.34
				c-0.54,0.65-1.21,1.15-2,1.51C1178.78,507.52,1177.9,507.7,1176.91,507.7z"/>
		</g>
	</g>
</g>
</svg>
